<?xml version="1.0" encoding="UTF-8" standalone="no"?>
<!DOCTYPE svg PUBLIC "-//W3C//DTD SVG 1.1//EN" "http://www.w3.org/Graphics/SVG/1.1/DTD/svg11.dtd">
<svg width="100%" height="100%" viewBox="0 0 1000 1000" version="1.1" xmlns="http://www.w3.org/2000/svg" xmlns:xlink="http://www.w3.org/1999/xlink" xml:space="preserve" xmlns:serif="http://www.serif.com/" style="fill-rule:evenodd;clip-rule:evenodd;stroke-linejoin:round;stroke-miterlimit:2;">
    <g transform="matrix(2.31736,0,0,2.31736,-1066.81,-1827.36)">
        <g transform="matrix(-197.822,197.822,197.822,197.822,861.42,954.45)">
            <path d="M0.682,-0.267L0.7,-0.235L0.519,-0.135L0.44,0.018L0.376,0.065C0.397,0.08 0.428,0.097 0.448,0.084C0.492,0.055 0.611,-0.016 0.616,-0.019L0.633,-0.03L0.641,-0.012C0.657,0.022 0.735,0.188 0.739,0.199C0.74,0.201 0.75,0.22 0.769,0.244L0.741,0.267C0.72,0.241 0.708,0.218 0.705,0.212C0.702,0.204 0.654,0.1 0.617,0.022C0.582,0.044 0.502,0.092 0.468,0.114C0.412,0.152 0.337,0.08 0.334,0.077L0.319,0.062L0.412,-0.007L0.492,-0.162L0.682,-0.267Z" style="fill:url(#_Linear1);fill-rule:nonzero;"/>
        </g>
        <g transform="matrix(-197.822,197.822,197.822,197.822,851.088,944.119)">
            <path d="M0.628,-0.182C0.63,-0.18 0.758,-0.015 0.819,0.043C0.884,0.105 0.937,0.124 0.98,0.1L0.998,0.132C0.939,0.164 0.872,0.144 0.794,0.069C0.731,0.009 0.605,-0.153 0.6,-0.16L0.628,-0.182Z" style="fill:url(#_Linear2);fill-rule:nonzero;"/>
        </g>
        <g transform="matrix(-197.822,197.822,197.822,197.822,821.028,914.058)">
            <path d="M0.163,-0.174C0.163,-0.172 0.148,-0.001 0.272,0.056C0.373,0.104 0.487,0.046 0.488,0.046L0.505,0.078C0.5,0.081 0.374,0.145 0.256,0.089C0.109,0.021 0.126,-0.169 0.127,-0.177L0.163,-0.174Z" style="fill:url(#_Linear3);fill-rule:nonzero;"/>
        </g>
        <g transform="matrix(-207.107,188.079,188.079,207.107,823.623,916.799)">
            <path d="M0.344,-0.092C0.341,-0.088 0.293,0.017 0.367,0.081L0.344,0.109C0.267,0.043 0.289,-0.062 0.311,-0.108L0.344,-0.092Z" style="fill:url(#_Linear4);fill-rule:nonzero;"/>
        </g>
        <g transform="matrix(-197.821,197.821,197.821,197.821,782.603,875.633)">
            <path d="M0.504,-0.127C0.504,-0.127 0.482,-0.06 0.498,0.003C0.515,0.067 0.56,0.112 0.561,0.113L0.535,0.139C0.533,0.137 0.482,0.086 0.463,0.013C0.444,-0.061 0.468,-0.136 0.469,-0.139L0.504,-0.127Z" style="fill:url(#_Linear5);fill-rule:nonzero;"/>
        </g>
        <g transform="matrix(-197.821,197.821,197.821,197.821,772.88,865.91)">
            <path d="M0.687,-0.044C0.688,-0.045 0.689,-0.045 0.69,-0.046C0.718,-0.059 0.748,-0.069 0.777,-0.079C0.796,-0.085 0.815,-0.092 0.833,-0.099C0.845,-0.104 0.857,-0.109 0.868,-0.114C0.887,-0.123 0.905,-0.134 0.921,-0.148C0.93,-0.155 0.939,-0.164 0.947,-0.173C0.97,-0.2 0.989,-0.235 1.001,-0.284L1.001,-0.284C1.001,-0.286 1.002,-0.289 1.002,-0.291L1.038,-0.283C1.037,-0.281 1.037,-0.278 1.036,-0.276C1.022,-0.218 1,-0.177 0.972,-0.146C0.963,-0.136 0.954,-0.128 0.945,-0.12C0.899,-0.082 0.843,-0.063 0.789,-0.044C0.76,-0.034 0.73,-0.024 0.702,-0.011C0.683,-0.002 0.665,0.011 0.65,0.029L0.648,0.03C0.591,0.094 0.56,0.2 0.547,0.255C0.542,0.277 0.539,0.291 0.539,0.291L0.503,0.285C0.503,0.284 0.504,0.282 0.504,0.279C0.507,0.264 0.515,0.227 0.529,0.182C0.533,0.169 0.538,0.155 0.543,0.141C0.561,0.095 0.586,0.045 0.62,0.007C0.62,0.007 0.62,0.007 0.62,0.007C0.62,0.007 0.62,0.007 0.621,0.007C0.624,0.003 0.627,-0.001 0.631,-0.004C0.648,-0.021 0.666,-0.035 0.687,-0.044Z" style="fill:url(#_Linear6);fill-rule:nonzero;"/>
        </g>
        <g transform="matrix(-197.822,197.822,197.822,197.822,740.456,833.486)">
            <path d="M0.863,-0.074C0.863,-0.073 0.86,-0.065 0.857,-0.053C0.856,-0.05 0.856,-0.046 0.855,-0.042C0.85,-0.014 0.847,0.026 0.868,0.05C0.87,0.052 0.873,0.055 0.875,0.057L0.853,0.086C0.845,0.08 0.839,0.073 0.833,0.065C0.806,0.024 0.815,-0.034 0.822,-0.065C0.823,-0.067 0.823,-0.069 0.824,-0.071C0.826,-0.079 0.828,-0.085 0.828,-0.086L0.863,-0.074Z" style="fill:url(#_Linear7);fill-rule:nonzero;"/>
        </g>
        <g transform="matrix(-197.822,197.822,197.822,197.822,723.414,816.444)">
            <path d="M0.621,-0.264C0.617,-0.256 0.614,-0.249 0.611,-0.242C0.591,-0.187 0.605,-0.142 0.63,-0.089C0.636,-0.076 0.643,-0.064 0.649,-0.05C0.65,-0.049 0.65,-0.049 0.65,-0.048C0.663,-0.023 0.677,0.004 0.689,0.033C0.715,0.099 0.706,0.159 0.69,0.204C0.675,0.244 0.655,0.272 0.65,0.279C0.649,0.28 0.649,0.28 0.648,0.28L0.648,0.28L0.62,0.257C0.62,0.257 0.62,0.257 0.62,0.257C0.626,0.25 0.698,0.154 0.655,0.047C0.643,0.018 0.63,-0.008 0.617,-0.033L0.606,-0.055C0.599,-0.068 0.593,-0.081 0.588,-0.094C0.587,-0.095 0.587,-0.096 0.587,-0.097C0.565,-0.147 0.555,-0.197 0.577,-0.255C0.58,-0.264 0.584,-0.272 0.588,-0.28L0.621,-0.264Z" style="fill:url(#_Linear8);fill-rule:nonzero;"/>
        </g>
        <g transform="matrix(-278.366,27.9226,27.9226,278.366,736.905,873.463)">
            <path d="M0.537,-0.114C0.537,-0.113 0.493,0.012 0.566,0.108L0.537,0.13C0.453,0.018 0.501,-0.12 0.503,-0.126L0.537,-0.114Z" style="fill:url(#_Linear9);fill-rule:nonzero;"/>
        </g>
        <g transform="matrix(-201.619,201.619,201.619,201.619,830.122,913.054)">
            <path d="M0.522,-0.608C0.544,-0.609 0.566,-0.608 0.588,-0.607L0.594,-0.606C0.606,-0.605 0.618,-0.603 0.63,-0.602C0.636,-0.589 0.643,-0.576 0.649,-0.563C0.65,-0.562 0.65,-0.562 0.65,-0.561C0.64,-0.563 0.629,-0.565 0.619,-0.566C0.615,-0.567 0.61,-0.568 0.606,-0.568C0.599,-0.569 0.592,-0.57 0.585,-0.57L0.585,-0.57C0.44,-0.581 0.29,-0.531 0.179,-0.42C-0.023,-0.218 -0.023,0.111 0.179,0.313C0.326,0.461 0.542,0.5 0.726,0.432C0.738,0.428 0.749,0.423 0.761,0.418C0.815,0.393 0.867,0.358 0.912,0.313C0.923,0.302 0.933,0.291 0.942,0.279C0.955,0.265 0.966,0.25 0.976,0.234L0.976,0.234C1.102,0.046 1.091,-0.206 0.945,-0.383C0.942,-0.387 0.938,-0.392 0.934,-0.396C0.941,-0.399 0.946,-0.403 0.951,-0.408C0.955,-0.412 0.958,-0.416 0.961,-0.421C0.965,-0.417 0.968,-0.413 0.972,-0.408C1.153,-0.191 1.142,0.134 0.937,0.339C0.721,0.555 0.369,0.555 0.153,0.339C-0.063,0.122 -0.063,-0.23 0.153,-0.446C0.255,-0.548 0.388,-0.602 0.522,-0.608Z" style="fill:url(#_Linear10);fill-rule:nonzero;"/>
        </g>
        <g transform="matrix(-197.821,197.821,197.821,197.821,791.207,884.237)">
            <path d="M0.384,-0.039C0.408,-0.015 0.408,0.024 0.384,0.048C0.371,0.062 0.353,0.068 0.335,0.066C0.323,0.065 0.311,0.061 0.301,0.053L0.297,0.048C0.272,0.024 0.272,-0.015 0.297,-0.039C0.321,-0.063 0.36,-0.063 0.384,-0.039ZM0.358,-0.013C0.348,-0.023 0.332,-0.023 0.322,-0.013C0.313,-0.003 0.312,0.013 0.322,0.023C0.332,0.032 0.348,0.032 0.358,0.023C0.368,0.013 0.368,-0.003 0.358,-0.013Z" style="fill:url(#_Linear11);fill-rule:nonzero;"/>
        </g>
        <g transform="matrix(-197.822,197.822,197.822,197.822,806.632,899.662)">
            <path d="M0.784,-0.044C0.808,-0.02 0.808,0.02 0.784,0.044C0.76,0.068 0.721,0.068 0.697,0.044L0.697,0.043C0.688,0.034 0.682,0.023 0.68,0.011C0.677,-0.008 0.682,-0.029 0.697,-0.044C0.721,-0.068 0.76,-0.068 0.784,-0.044ZM0.759,-0.018C0.749,-0.028 0.733,-0.028 0.723,-0.018C0.713,-0.008 0.713,0.008 0.723,0.018C0.733,0.028 0.749,0.028 0.759,0.018C0.768,0.008 0.768,-0.008 0.759,-0.018Z" style="fill:url(#_Linear12);fill-rule:nonzero;"/>
        </g>
        <g transform="matrix(-197.822,197.822,197.822,197.822,746.582,839.612)">
            <path d="M0.548,-0.038C0.572,-0.014 0.572,0.025 0.548,0.049C0.535,0.062 0.517,0.068 0.5,0.067C0.488,0.066 0.476,0.062 0.466,0.054C0.464,0.052 0.462,0.051 0.46,0.049C0.436,0.025 0.436,-0.014 0.46,-0.038C0.484,-0.063 0.523,-0.063 0.548,-0.038ZM0.522,-0.013C0.512,-0.022 0.496,-0.022 0.486,-0.013C0.476,-0.003 0.476,0.013 0.486,0.023C0.496,0.033 0.512,0.033 0.522,0.023C0.532,0.013 0.532,-0.003 0.522,-0.013Z" style="fill:url(#_Linear13);fill-rule:nonzero;"/>
        </g>
        <g transform="matrix(-197.822,197.822,197.822,197.822,666.825,756.287)">
            <path d="M0.474,-0.038C0.498,-0.014 0.498,0.025 0.474,0.049C0.471,0.051 0.469,0.053 0.467,0.055C0.456,0.063 0.444,0.067 0.432,0.067C0.416,0.068 0.399,0.062 0.386,0.049C0.362,0.025 0.362,-0.014 0.386,-0.038C0.41,-0.062 0.449,-0.062 0.474,-0.038ZM0.448,-0.012C0.438,-0.022 0.422,-0.022 0.412,-0.012C0.402,-0.003 0.402,0.013 0.412,0.023C0.422,0.033 0.438,0.033 0.448,0.023C0.458,0.013 0.458,-0.003 0.448,-0.012Z" style="fill:url(#_Linear14);fill-rule:nonzero;"/>
        </g>
        <g transform="matrix(-197.822,197.822,197.822,197.822,662.464,755.494)">
            <path d="M0.66,-0.039C0.684,-0.015 0.684,0.024 0.66,0.048C0.647,0.062 0.629,0.068 0.611,0.066C0.599,0.065 0.587,0.061 0.577,0.053C0.576,0.051 0.574,0.05 0.573,0.048C0.549,0.024 0.549,-0.015 0.573,-0.039C0.597,-0.063 0.636,-0.063 0.66,-0.039ZM0.634,-0.013C0.624,-0.023 0.608,-0.023 0.598,-0.013C0.589,-0.003 0.589,0.013 0.598,0.023C0.608,0.032 0.624,0.032 0.634,0.023C0.644,0.013 0.644,-0.003 0.634,-0.013Z" style="fill:url(#_Linear15);fill-rule:nonzero;"/>
        </g>
        <g transform="matrix(-197.822,197.822,197.822,197.822,717.072,810.102)">
            <path d="M0.912,-0.039C0.936,-0.015 0.936,0.024 0.912,0.048C0.907,0.053 0.901,0.057 0.895,0.06C0.883,0.066 0.87,0.068 0.857,0.065C0.845,0.063 0.834,0.058 0.825,0.048C0.824,0.048 0.824,0.048 0.824,0.047C0.812,0.035 0.806,0.018 0.807,0.002C0.807,-0.013 0.813,-0.028 0.825,-0.039C0.849,-0.063 0.888,-0.063 0.912,-0.039ZM0.886,-0.013C0.876,-0.023 0.86,-0.023 0.85,-0.013C0.841,-0.003 0.841,0.013 0.85,0.023C0.86,0.032 0.876,0.032 0.886,0.023C0.896,0.013 0.896,-0.003 0.886,-0.013Z" style="fill:url(#_Linear16);fill-rule:nonzero;"/>
        </g>
        <g transform="matrix(-197.822,197.822,197.822,197.822,705.157,798.187)">
            <path d="M1.075,-0.038C1.099,-0.014 1.099,0.025 1.075,0.049C1.064,0.06 1.05,0.066 1.036,0.067C1.024,0.068 1.012,0.065 1.001,0.059L1.001,0.059C0.996,0.056 0.992,0.053 0.988,0.049C0.964,0.025 0.964,-0.014 0.988,-0.038C1.012,-0.062 1.051,-0.062 1.075,-0.038ZM1.05,-0.013C1.04,-0.022 1.024,-0.022 1.014,-0.013C1.004,-0.003 1.004,0.013 1.014,0.023C1.024,0.033 1.04,0.033 1.05,0.023C1.059,0.013 1.059,-0.003 1.05,-0.013Z" style="fill:url(#_Linear17);fill-rule:nonzero;"/>
        </g>
        <g transform="matrix(-197.822,197.822,197.822,197.822,775.005,868.035)">
            <path d="M0.189,-0.039C0.213,-0.015 0.213,0.025 0.189,0.049C0.181,0.056 0.172,0.061 0.163,0.064C0.151,0.068 0.138,0.067 0.126,0.064C0.117,0.061 0.109,0.056 0.102,0.049C0.078,0.025 0.078,-0.015 0.102,-0.039C0.126,-0.063 0.165,-0.063 0.189,-0.039ZM0.163,-0.013C0.153,-0.023 0.137,-0.023 0.128,-0.013C0.118,-0.003 0.118,0.013 0.128,0.023C0.137,0.033 0.153,0.033 0.163,0.023C0.173,0.013 0.173,-0.003 0.163,-0.013Z" style="fill:url(#_Linear18);fill-rule:nonzero;"/>
        </g>
    </g>
    <defs>
        <linearGradient id="_Linear1" x1="0" y1="0" x2="1" y2="0" gradientUnits="userSpaceOnUse" gradientTransform="matrix(1,0,0,-1,0,1.51803e-06)"><stop offset="0" style="stop-color:rgb(235,107,255);stop-opacity:1"/><stop offset="1" style="stop-color:rgb(136,2,255);stop-opacity:1"/></linearGradient>
        <linearGradient id="_Linear2" x1="0" y1="0" x2="1" y2="0" gradientUnits="userSpaceOnUse" gradientTransform="matrix(1,0,0,-1,0,-0.0176678)"><stop offset="0" style="stop-color:rgb(235,107,255);stop-opacity:1"/><stop offset="1" style="stop-color:rgb(136,2,255);stop-opacity:1"/></linearGradient>
        <linearGradient id="_Linear3" x1="0" y1="0" x2="1" y2="0" gradientUnits="userSpaceOnUse" gradientTransform="matrix(1,0,0,-1,0,-0.0327785)"><stop offset="0" style="stop-color:rgb(235,107,255);stop-opacity:1"/><stop offset="1" style="stop-color:rgb(136,2,255);stop-opacity:1"/></linearGradient>
        <linearGradient id="_Linear4" x1="0" y1="0" x2="1" y2="0" gradientUnits="userSpaceOnUse" gradientTransform="matrix(0.998843,0.0480937,0.0480937,-0.998843,0.000370472,-0.0153973)"><stop offset="0" style="stop-color:rgb(235,107,255);stop-opacity:1"/><stop offset="1" style="stop-color:rgb(136,2,255);stop-opacity:1"/></linearGradient>
        <linearGradient id="_Linear5" x1="0" y1="0" x2="1" y2="0" gradientUnits="userSpaceOnUse" gradientTransform="matrix(1,0,0,-1,0,1.54028e-06)"><stop offset="0" style="stop-color:rgb(235,107,255);stop-opacity:1"/><stop offset="1" style="stop-color:rgb(136,2,255);stop-opacity:1"/></linearGradient>
        <linearGradient id="_Linear6" x1="0" y1="0" x2="1" y2="0" gradientUnits="userSpaceOnUse" gradientTransform="matrix(1,0,0,-1,0,1.12324e-06)"><stop offset="0" style="stop-color:rgb(235,107,255);stop-opacity:1"/><stop offset="1" style="stop-color:rgb(136,2,255);stop-opacity:1"/></linearGradient>
        <linearGradient id="_Linear7" x1="0" y1="0" x2="1" y2="0" gradientUnits="userSpaceOnUse" gradientTransform="matrix(1,0,0,-1,0,1.00949e-06)"><stop offset="0" style="stop-color:rgb(235,107,255);stop-opacity:1"/><stop offset="1" style="stop-color:rgb(136,2,255);stop-opacity:1"/></linearGradient>
        <linearGradient id="_Linear8" x1="0" y1="0" x2="1" y2="0" gradientUnits="userSpaceOnUse" gradientTransform="matrix(1,0,0,-1,0,3.43794e-06)"><stop offset="0" style="stop-color:rgb(235,107,255);stop-opacity:1"/><stop offset="1" style="stop-color:rgb(136,2,255);stop-opacity:1"/></linearGradient>
        <linearGradient id="_Linear9" x1="0" y1="0" x2="1" y2="0" gradientUnits="userSpaceOnUse" gradientTransform="matrix(0.774151,0.633001,0.633001,-0.774151,0.119039,-0.333638)"><stop offset="0" style="stop-color:rgb(235,107,255);stop-opacity:1"/><stop offset="1" style="stop-color:rgb(136,2,255);stop-opacity:1"/></linearGradient>
        <linearGradient id="_Linear10" x1="0" y1="0" x2="1" y2="0" gradientUnits="userSpaceOnUse" gradientTransform="matrix(1,0,0,-1,0,-0.0536369)"><stop offset="0" style="stop-color:rgb(235,107,255);stop-opacity:1"/><stop offset="1" style="stop-color:rgb(136,2,255);stop-opacity:1"/></linearGradient>
        <linearGradient id="_Linear11" x1="0" y1="0" x2="1" y2="0" gradientUnits="userSpaceOnUse" gradientTransform="matrix(1,0,0,-1,0,0.00480234)"><stop offset="0" style="stop-color:rgb(235,107,255);stop-opacity:1"/><stop offset="1" style="stop-color:rgb(136,2,255);stop-opacity:1"/></linearGradient>
        <linearGradient id="_Linear12" x1="0" y1="0" x2="1" y2="0" gradientUnits="userSpaceOnUse" gradientTransform="matrix(1,0,0,-1,0,-1.1337e-05)"><stop offset="0" style="stop-color:rgb(235,107,255);stop-opacity:1"/><stop offset="1" style="stop-color:rgb(136,2,255);stop-opacity:1"/></linearGradient>
        <linearGradient id="_Linear13" x1="0" y1="0" x2="1" y2="0" gradientUnits="userSpaceOnUse" gradientTransform="matrix(1,0,0,-1,0,0.0051725)"><stop offset="0" style="stop-color:rgb(235,107,255);stop-opacity:1"/><stop offset="1" style="stop-color:rgb(136,2,255);stop-opacity:1"/></linearGradient>
        <linearGradient id="_Linear14" x1="0" y1="0" x2="1" y2="0" gradientUnits="userSpaceOnUse" gradientTransform="matrix(1,0,0,-1,0,0.0054172)"><stop offset="0" style="stop-color:rgb(235,107,255);stop-opacity:1"/><stop offset="1" style="stop-color:rgb(136,2,255);stop-opacity:1"/></linearGradient>
        <linearGradient id="_Linear15" x1="0" y1="0" x2="1" y2="0" gradientUnits="userSpaceOnUse" gradientTransform="matrix(1,0,0,-1,0,0.00481179)"><stop offset="0" style="stop-color:rgb(235,107,255);stop-opacity:1"/><stop offset="1" style="stop-color:rgb(136,2,255);stop-opacity:1"/></linearGradient>
        <linearGradient id="_Linear16" x1="0" y1="0" x2="1" y2="0" gradientUnits="userSpaceOnUse" gradientTransform="matrix(1,0,0,-1,0,0.00469446)"><stop offset="0" style="stop-color:rgb(235,107,255);stop-opacity:1"/><stop offset="1" style="stop-color:rgb(136,2,255);stop-opacity:1"/></linearGradient>
        <linearGradient id="_Linear17" x1="0" y1="0" x2="1" y2="0" gradientUnits="userSpaceOnUse" gradientTransform="matrix(1,0,0,-1,0,0.00526392)"><stop offset="0" style="stop-color:rgb(235,107,255);stop-opacity:1"/><stop offset="1" style="stop-color:rgb(136,2,255);stop-opacity:1"/></linearGradient>
        <linearGradient id="_Linear18" x1="0" y1="0" x2="1" y2="0" gradientUnits="userSpaceOnUse" gradientTransform="matrix(1,0,0,-1,0,0.00499163)"><stop offset="0" style="stop-color:rgb(235,107,255);stop-opacity:1"/><stop offset="1" style="stop-color:rgb(136,2,255);stop-opacity:1"/></linearGradient>
    </defs>
</svg>
