<?xml version="1.0" encoding="UTF-8" standalone="no"?>
<!DOCTYPE svg PUBLIC "-//W3C//DTD SVG 1.1//EN" "http://www.w3.org/Graphics/SVG/1.1/DTD/svg11.dtd">
<svg width="100%" height="100%" viewBox="0 0 1605 1288" version="1.1" xmlns="http://www.w3.org/2000/svg" xmlns:xlink="http://www.w3.org/1999/xlink" xml:space="preserve" xmlns:serif="http://www.serif.com/" style="fill-rule:evenodd;clip-rule:evenodd;stroke-linejoin:round;stroke-miterlimit:2;" class="text-black dark:text-white">
    <g transform="matrix(1,0,0,1,-221.751,-380.352)">
        <g transform="matrix(1.86401,0,0,1.86401,-97.3339,-468.886)">
            <g transform="matrix(9.32335,0,0,9.32335,135.987,291.254)">
                <path d="M89.7,39.2C87.1,39.2 84.8,40.7 83.9,43L79.6,52.4L73.5,56.4C73.4,56.3 73.4,56.2 73.3,56.2C71.4,54.4 68.7,54.4 68.2,54.5L54.6,54.5C51.3,54.5 49.4,53.7 47.2,52.7C44.8,51.7 42.1,50.5 37.3,50.5C32.1,50.5 28.4,53.2 25.5,55.3C23.2,57 21.3,58.4 19.2,58.4L19.1,58.4L16.1,55.4C15.4,54.7 14.2,54.7 13.4,55.4L4.3,64.5C3.6,65.2 3.6,66.4 4.3,67.2L28.3,91.2C28.7,91.6 29.1,91.7 29.6,91.7C30.1,91.7 30.6,91.5 30.9,91.2L40,82.1C40.7,81.4 40.7,80.2 40,79.4L22.2,61.7C24.2,61 26,59.7 27.7,58.4C30.5,56.4 33.3,54.3 37.3,54.3C41.3,54.3 43.4,55.2 45.7,56.2C48.1,57.2 50.5,58.3 54.6,58.3L68.3,58.3C68.7,58.3 70,58.4 70.7,59C70.9,59.2 71.2,59.5 71.2,60.4C71.2,63.9 69.9,63.9 68.6,63.9L53.5,63.9C52.5,63.9 51.6,64.7 51.6,65.8C51.6,66.9 52.4,67.7 53.5,67.7L68.6,67.7C71.5,67.7 75,66.4 75,60.4L75,60.1L82.2,55.4C82.5,55.2 82.7,54.9 82.9,54.6L87.4,44.6C87.8,43.6 88.8,43 89.8,43C91.2,43 92.4,44.2 92.4,45.6C92.4,46 92.3,46.4 92.1,46.8L85.4,61.9L68.4,75L46.1,75C45.1,75 44.2,75.8 44.2,76.9C44.2,78 45,78.8 46.1,78.8L69,78.8C69.4,78.8 69.8,78.7 70.1,78.4L88,64.5C88.2,64.3 88.4,64.1 88.6,63.8L95.5,48.3C95.9,47.4 96.1,46.5 96.1,45.6C96,42.1 93.2,39.2 89.7,39.2ZM29.5,87.3L8.2,65.9L14.7,59.4L36,80.8L29.5,87.3Z" style="fill-rule:nonzero;"/>
            </g>
            <g transform="matrix(1.41185,0,0,1.41185,-7.34484,-435.338)">
                <path d="M436.709,667.786C448.711,645.897 471.974,631.044 498.679,631.044L594.803,631.044L595.26,631.045C634.029,631.291 665.429,662.842 665.429,701.669C665.429,740.648 633.782,772.294 594.803,772.294L498.679,772.294C460.05,772.294 428.624,741.215 428.061,702.715L453.115,702.715C453.673,727.454 473.929,747.365 498.798,747.365L594.684,747.365C619.904,747.365 640.379,726.889 640.379,701.669C640.379,676.449 619.904,655.973 594.684,655.973L498.798,655.973C487.011,655.973 476.259,660.446 468.152,667.786L436.709,667.786Z"/>
                <path d="M538.085,777.294C526.083,799.183 502.82,814.036 476.116,814.036L379.991,814.036C341.012,814.036 309.366,782.39 309.366,743.411C309.366,704.432 341.012,672.786 379.991,672.786L476.116,672.786L476.572,672.787C514.992,673.03 546.175,704.018 546.733,742.365L521.68,742.365C521.122,717.625 500.866,697.715 475.996,697.715L380.111,697.715C354.891,697.715 334.415,718.191 334.415,743.411C334.415,768.631 354.891,789.106 380.111,789.106L475.996,789.106C487.784,789.106 498.535,784.633 506.643,777.294L538.085,777.294Z"/>
            </g>
        </g>
    </g>
</svg>

