<?xml version="1.0" encoding="UTF-8" standalone="no"?>
<!DOCTYPE svg PUBLIC "-//W3C//DTD SVG 1.1//EN" "http://www.w3.org/Graphics/SVG/1.1/DTD/svg11.dtd">
<svg width="100%" height="100%" viewBox="0 0 1654 570" version="1.1" xmlns="http://www.w3.org/2000/svg" xmlns:xlink="http://www.w3.org/1999/xlink" xml:space="preserve" xmlns:serif="http://www.serif.com/" style="fill-rule:evenodd;clip-rule:evenodd;stroke-linejoin:round;stroke-miterlimit:2;">
    <g transform="matrix(1,0,0,1,-539.356,-733.454)">
        <g>
            <g transform="matrix(1.29124,0,0,1.29124,-525.648,-94.7068)">
                <g transform="matrix(0.774451,0,0,0.774451,407.088,73.3458)">
                    <path d="M891.821,790.988C891.821,788.503 890.895,786.107 889.225,784.267C885.703,780.474 883.576,775.388 883.576,769.805C883.576,757.925 893.207,748.293 905.087,748.293C916.967,748.293 926.598,757.925 926.599,769.805C926.599,769.805 926.599,769.805 926.599,769.805C926.598,775.387 924.472,780.473 920.984,784.297C919.322,786.128 918.401,788.513 918.401,790.987C918.354,798.199 918.354,813.235 918.354,825.326C918.354,828.946 920.311,832.284 923.471,834.052C926.63,835.82 930.499,835.743 933.585,833.849C942.919,828.121 954.246,821.171 960.522,817.32C963.485,815.501 965.291,812.274 965.291,808.797L965.291,791.784C965.291,789.132 966.345,786.588 968.22,784.713C970.096,782.838 972.639,781.784 975.291,781.784C977.429,781.784 979.687,781.784 981.824,781.784C984.476,781.784 987.02,782.838 988.895,784.713C990.77,786.588 991.824,789.132 991.824,791.784C991.824,801.473 991.824,815.818 991.824,823.646C991.824,827.123 990.018,830.35 987.054,832.169C973.763,840.325 936.415,863.243 923.124,871.399C920.161,873.217 918.354,876.445 918.354,879.922C918.354,885.31 918.354,893.386 918.354,898.568C918.354,901.72 916.868,904.688 914.343,906.576C899.472,917.697 847.582,956.502 832.711,967.623C830.187,969.511 828.7,972.479 828.7,975.631C828.7,980.304 828.7,987.412 828.7,993.247C828.7,995.899 829.754,998.442 831.629,1000.32C833.504,1002.19 836.048,1003.25 838.7,1003.25C855.489,1003.25 889.689,1003.25 911.963,1003.25C915.823,1003.25 919.339,1005.47 920.996,1008.96C922.652,1012.44 922.154,1016.57 919.715,1019.56C899.343,1044.56 861.615,1090.86 850.651,1104.31C848.718,1106.68 847.977,1109.81 848.642,1112.8C852.033,1128.05 862.664,1175.86 866.214,1191.83C866.943,1195.11 865.978,1198.53 863.645,1200.95C848.665,1216.46 792.799,1274.3 772.782,1295.02C770.898,1296.97 768.302,1298.08 765.589,1298.08C762.877,1298.08 760.281,1296.97 758.396,1295.02C738.379,1274.3 682.513,1216.46 667.533,1200.95C665.2,1198.53 664.235,1195.11 664.964,1191.83C668.514,1175.86 679.145,1128.05 682.537,1112.8C683.201,1109.81 682.461,1106.68 680.527,1104.31C669.564,1090.86 631.836,1044.56 611.465,1019.56C609.026,1016.57 608.527,1012.44 610.184,1008.96C611.84,1005.47 615.356,1003.25 619.216,1003.25C641.49,1003.25 675.689,1003.25 692.478,1003.25C695.13,1003.25 697.674,1002.19 699.549,1000.32C701.424,998.442 702.478,995.899 702.478,993.247C702.478,987.412 702.478,980.304 702.478,975.631C702.478,972.479 700.991,969.511 698.467,967.623C683.596,956.502 631.707,917.697 616.837,906.576C614.312,904.688 612.826,901.72 612.826,898.568L612.826,879.922C612.826,876.445 611.02,873.218 608.056,871.399C594.765,863.243 557.417,840.325 544.126,832.169C541.162,830.35 539.356,827.123 539.356,823.646C539.356,815.818 539.356,801.473 539.356,791.784C539.356,789.132 540.409,786.588 542.285,784.713C544.16,782.838 546.704,781.784 549.356,781.784C551.493,781.784 553.751,781.784 555.888,781.784C558.54,781.784 561.084,782.838 562.959,784.713C564.835,786.588 565.888,789.132 565.888,791.784C565.888,797.374 565.888,804.133 565.888,808.797C565.888,812.274 567.694,815.501 570.658,817.32C576.934,821.171 588.261,828.121 597.596,833.85C600.682,835.743 604.55,835.821 607.71,834.053C610.869,832.285 612.826,828.947 612.826,825.326L612.826,790.989C612.826,788.503 611.9,786.107 610.229,784.267C606.707,780.475 604.58,775.388 604.58,769.805C604.58,757.925 614.212,748.293 626.091,748.293C637.971,748.293 647.603,757.925 647.603,769.805C647.603,769.805 647.603,769.805 647.603,769.805C647.603,775.388 645.476,780.474 641.988,784.297C640.326,786.129 639.405,788.514 639.405,790.987C639.358,807.515 639.358,867.486 639.358,885.278C639.358,888.431 640.845,891.398 643.369,893.286C646.763,895.824 651.859,899.635 656.864,903.378C659.896,905.645 663.947,906.006 667.332,904.311C670.716,902.616 672.853,899.155 672.853,895.37C672.853,888.668 672.853,881.859 672.853,877.755C672.853,875.422 672.037,873.162 670.547,871.367C665.245,865.056 664.268,855.847 668.702,848.334C668.702,848.334 668.702,848.334 668.702,848.334C674.38,838.715 686.783,835.52 696.402,841.198C706.021,846.876 709.217,859.279 703.538,868.898C702.991,869.826 702.381,870.694 701.716,871.5C700.247,873.281 699.444,875.518 699.444,877.827C699.387,888.552 699.387,918.28 699.387,930.169C699.387,933.321 700.873,936.289 703.398,938.177C709.061,942.412 719.338,950.097 725,954.332C727.525,956.22 729.012,959.188 729.012,962.34C729.012,969.73 729.012,983.708 729.012,993.247C729.012,998.77 733.489,1003.25 739.012,1003.25C752.983,1003.25 778.195,1003.25 792.166,1003.25C797.689,1003.25 802.166,998.77 802.166,993.247C802.166,983.708 802.166,969.73 802.166,962.34C802.166,959.188 803.653,956.22 806.178,954.332C811.84,950.097 822.118,942.412 827.78,938.177C830.305,936.289 831.792,933.321 831.792,930.169L831.792,873.705C831.791,870.925 830.634,868.271 828.597,866.379C823.777,861.987 820.784,855.651 820.784,848.616C820.784,835.211 831.653,824.342 845.058,824.342C858.464,824.342 869.332,835.211 869.332,848.616C869.332,848.616 869.332,848.616 869.332,848.616C869.332,855.651 866.34,861.987 861.558,866.42C859.533,868.301 858.382,870.941 858.382,873.705C858.325,878.842 858.325,887.368 858.325,895.37C858.325,899.155 860.462,902.616 863.847,904.311C867.231,906.007 871.283,905.646 874.314,903.379C879.32,899.635 884.416,895.824 887.81,893.286C890.334,891.398 891.821,888.431 891.821,885.278C891.821,867.486 891.821,807.516 891.821,790.988ZM693.962,1183.66C693.233,1186.94 694.198,1190.36 696.531,1192.78C704.109,1200.62 721.708,1218.85 735.13,1232.74C737.962,1235.67 742.29,1236.59 746.069,1235.07C749.848,1233.54 752.322,1229.87 752.322,1225.79C752.322,1214.31 752.322,1201.9 752.322,1195.96C752.322,1193.66 751.528,1191.43 750.074,1189.65C744.406,1182.69 729.184,1164.01 717.979,1150.26C715.558,1147.29 711.652,1145.97 707.923,1146.85C704.194,1147.73 701.297,1150.67 700.465,1154.41C698.13,1164.91 695.455,1176.94 693.962,1183.66ZM830.713,1154.41C829.881,1150.67 826.985,1147.73 823.256,1146.85C819.526,1145.97 815.621,1147.29 813.2,1150.26C801.995,1164.01 786.773,1182.69 781.104,1189.64C779.65,1191.43 778.856,1193.66 778.856,1195.96C778.856,1201.9 778.856,1214.31 778.856,1225.79C778.856,1229.87 781.33,1233.54 785.109,1235.07C788.889,1236.59 793.217,1235.67 796.049,1232.74C809.47,1218.85 827.069,1200.62 834.648,1192.78C836.981,1190.36 837.946,1186.94 837.217,1183.66C835.723,1176.94 833.049,1164.91 830.713,1154.41ZM815.836,1105.03C817.77,1102.66 818.51,1099.53 817.846,1096.54C815.165,1084.48 808.054,1052.5 804.743,1037.61C803.726,1033.04 799.668,1029.78 794.981,1029.78L736.197,1029.78C731.51,1029.78 727.453,1033.04 726.435,1037.61C723.125,1052.5 716.013,1084.48 713.332,1096.54C712.668,1099.53 713.409,1102.66 715.342,1105.03C723.488,1115.02 745.885,1142.51 757.837,1157.17C759.736,1159.5 762.582,1160.86 765.589,1160.86C768.595,1160.86 771.441,1159.5 773.34,1157.17C785.292,1142.51 807.69,1115.02 815.836,1105.03ZM842.651,1029.78C839.618,1029.78 836.749,1031.16 834.851,1033.52C832.953,1035.89 832.231,1038.99 832.89,1041.95C833.778,1045.95 834.791,1050.5 835.775,1054.93C836.607,1058.67 839.503,1061.6 843.232,1062.49C846.961,1063.37 850.867,1062.05 853.288,1059.07C856.717,1054.87 860.421,1050.32 863.863,1046.1C866.302,1043.11 866.801,1038.98 865.144,1035.49C863.488,1032 859.972,1029.78 856.112,1029.78C851.512,1029.78 846.787,1029.78 842.651,1029.78ZM675.068,1029.78C671.207,1029.78 667.692,1032 666.035,1035.49C664.379,1038.98 664.877,1043.11 667.316,1046.1C670.758,1050.32 674.461,1054.87 677.89,1059.07C680.311,1062.04 684.217,1063.37 687.946,1062.49C691.675,1061.6 694.572,1058.67 695.404,1054.93C696.388,1050.5 697.4,1045.95 698.289,1041.95C698.947,1038.99 698.226,1035.89 696.328,1033.52C694.43,1031.16 691.56,1029.78 688.527,1029.78C684.391,1029.78 679.667,1029.78 675.068,1029.78ZM724.17,805.797C724.17,805.797 724.17,805.797 724.17,805.797C724.17,812.269 718.923,817.515 712.452,817.515C705.98,817.515 700.733,812.269 700.733,805.797C700.733,799.325 705.98,794.079 712.452,794.079C718.923,794.079 724.17,799.325 724.17,805.797ZM828.235,787.165C828.235,787.165 828.235,787.165 828.235,787.165C828.235,796.954 820.299,804.89 810.51,804.89C800.721,804.89 792.784,796.954 792.784,787.165C792.784,777.376 800.721,769.44 810.51,769.44C820.299,769.44 828.235,777.376 828.235,787.165ZM685.663,774.033C685.663,774.033 685.663,774.033 685.663,774.033C685.663,778.17 682.31,781.523 678.173,781.523C674.037,781.523 670.684,778.17 670.684,774.033C670.684,769.897 674.037,766.544 678.173,766.544C682.31,766.544 685.663,769.897 685.663,774.033ZM868.221,745.172C868.221,745.172 868.221,745.172 868.221,745.172C868.221,751.644 862.974,756.89 856.503,756.89C850.031,756.89 844.784,751.643 844.784,745.172C844.784,738.7 850.031,733.454 856.503,733.454C862.974,733.454 868.221,738.7 868.221,745.172Z" style="fill:url(#_Linear1);fill-rule:nonzero;"/>
                </g>
                <g transform="matrix(0.774451,0,0,0.774451,407.088,73.3458)">
                    <path d="M805.866,1117.26L813.364,1150.07C815.795,1147.23 819.61,1145.99 823.256,1146.85C826.233,1147.55 828.68,1149.57 829.948,1152.27L818.079,1098.84C818.056,1101.07 817.277,1103.26 815.836,1105.03L805.866,1117.26ZM717.512,1149.73L725.417,1117.39L715.342,1105.03C713.444,1102.7 712.696,1099.64 713.314,1096.71L701.302,1152.11C702.592,1149.49 705.002,1147.54 707.923,1146.85C711.421,1146.02 715.075,1147.14 717.512,1149.73Z" style="fill:rgb(41,46,57);fill-opacity:0.5;"/>
                </g>
            </g>
            <g>
                <g transform="matrix(3.07243,0,0,3.18966,-2865.8,-1796.17)">
                    <path d="M1274.07,931.167C1274.07,931.004 1274.13,930.848 1274.25,930.733C1274.37,930.618 1274.53,930.553 1274.7,930.553L1274.98,930.553C1275.18,930.553 1275.37,930.462 1275.49,930.306C1275.61,930.15 1275.65,929.949 1275.59,929.763C1275.45,929.326 1275.29,928.799 1275.17,928.436C1275.09,928.176 1274.85,927.999 1274.57,927.999C1273.53,927.999 1271.09,927.999 1270.05,927.999C1269.77,927.999 1269.52,928.176 1269.44,928.436C1269.33,928.799 1269.16,929.326 1269.03,929.763C1268.97,929.949 1269.01,930.15 1269.13,930.306C1269.25,930.462 1269.44,930.553 1269.64,930.553C1269.77,930.553 1269.9,930.553 1270.02,930.553C1270.37,930.553 1270.66,930.828 1270.66,931.167C1270.66,931.737 1270.66,932.581 1270.66,933.151C1270.66,933.314 1270.59,933.47 1270.47,933.585C1270.35,933.7 1270.19,933.764 1270.02,933.764C1268.73,933.764 1265.84,933.764 1264.55,933.764C1264.38,933.764 1264.22,933.7 1264.1,933.585C1263.99,933.47 1263.92,933.314 1263.92,933.151L1263.92,931.167C1263.92,931.004 1263.99,930.848 1264.1,930.733C1264.22,930.618 1264.38,930.553 1264.55,930.553C1264.63,930.553 1264.7,930.553 1264.78,930.553C1265.05,930.553 1265.3,930.381 1265.38,930.127C1266.09,928 1269.23,918.553 1269.94,916.425C1270.02,916.171 1270.27,915.999 1270.55,915.999L1274.31,915.999C1274.59,915.999 1274.84,916.173 1274.92,916.429C1275.62,918.562 1278.68,927.99 1279.38,930.123C1279.46,930.379 1279.7,930.553 1279.98,930.553C1280.04,930.553 1280.11,930.553 1280.17,930.553C1280.34,930.553 1280.5,930.618 1280.62,930.733C1280.74,930.848 1280.8,931.004 1280.8,931.167L1280.8,933.151C1280.8,933.314 1280.74,933.47 1280.62,933.585C1280.5,933.7 1280.34,933.764 1280.17,933.764C1278.88,933.764 1275.99,933.764 1274.7,933.764C1274.53,933.764 1274.37,933.7 1274.25,933.585C1274.13,933.47 1274.07,933.314 1274.07,933.151C1274.07,932.581 1274.07,931.737 1274.07,931.167ZM1270.75,924.21C1270.69,924.396 1270.73,924.597 1270.85,924.752C1270.97,924.907 1271.16,924.999 1271.36,924.999C1271.92,924.999 1272.66,924.999 1273.23,924.999C1273.43,924.999 1273.62,924.907 1273.74,924.751C1273.86,924.595 1273.9,924.394 1273.84,924.208C1273.6,923.434 1273.22,922.222 1272.9,921.187C1272.82,920.927 1272.57,920.75 1272.29,920.75C1272.01,920.751 1271.76,920.929 1271.68,921.189C1271.36,922.225 1270.99,923.436 1270.75,924.21Z" style="fill:rgb(41,46,57);fill-rule:nonzero;"/>
                    <path d="M1295.82,922.237C1295.82,922.075 1295.89,921.919 1296.01,921.803C1296.12,921.688 1296.29,921.624 1296.46,921.624L1300.92,921.624C1301.28,921.624 1301.56,921.898 1301.56,922.237C1301.56,923.87 1301.56,928.307 1301.56,929.94C1301.56,930.279 1301.85,930.553 1302.2,930.553C1302.26,930.553 1302.33,930.553 1302.39,930.553C1302.56,930.553 1302.72,930.618 1302.84,930.733C1302.96,930.848 1303.03,931.004 1303.03,931.167L1303.03,933.151C1303.03,933.314 1302.96,933.47 1302.84,933.585C1302.72,933.7 1302.56,933.764 1302.39,933.764C1301.23,933.764 1298.83,933.764 1298.1,933.764C1297.98,933.764 1297.88,933.672 1297.88,933.558C1297.88,933.557 1297.88,933.557 1297.88,933.557C1297.88,933.408 1297.8,933.271 1297.66,933.2C1297.53,933.128 1297.36,933.133 1297.23,933.213C1296.98,933.367 1296.71,933.495 1296.43,933.6C1295.87,933.803 1295.23,933.905 1294.51,933.905C1293.83,933.905 1293.2,933.8 1292.61,933.589C1292.01,933.378 1291.5,933.059 1291.06,932.634C1290.61,932.208 1290.27,931.675 1290.01,931.034C1289.76,930.393 1289.63,929.639 1289.63,928.772L1289.63,925.448C1289.63,925.109 1289.35,924.835 1288.99,924.835C1288.89,924.835 1288.79,924.835 1288.69,924.835C1288.33,924.835 1288.05,924.56 1288.05,924.221C1288.05,923.651 1288.05,922.807 1288.05,922.237C1288.05,922.075 1288.12,921.919 1288.24,921.803C1288.36,921.688 1288.52,921.624 1288.69,921.624L1292.78,921.624C1292.95,921.624 1293.11,921.688 1293.23,921.803C1293.35,921.919 1293.42,922.075 1293.42,922.237L1293.42,928.772C1293.42,929.585 1293.62,930.192 1294.04,930.594C1294.45,930.997 1294.99,931.198 1295.65,931.198C1296.12,931.198 1296.55,931.053 1296.93,930.764C1297.28,930.498 1297.55,930.146 1297.72,929.707C1297.75,929.638 1297.76,929.565 1297.76,929.491C1297.76,928.973 1297.76,926.59 1297.76,925.448C1297.76,925.286 1297.7,925.13 1297.58,925.014C1297.46,924.899 1297.3,924.835 1297.13,924.835C1296.91,924.835 1296.67,924.835 1296.46,924.835C1296.29,924.835 1296.12,924.77 1296.01,924.655C1295.89,924.54 1295.82,924.384 1295.82,924.221C1295.82,923.651 1295.82,922.807 1295.82,922.237Z" style="fill:rgb(41,46,57);fill-rule:nonzero;"/>
                    <path d="M1315.66,921.007C1315.66,921.17 1315.73,921.327 1315.85,921.443C1315.97,921.559 1316.13,921.624 1316.3,921.624L1317.45,921.624C1317.8,921.624 1318.09,921.898 1318.09,922.237C1318.09,922.773 1318.09,923.545 1318.09,924.08C1318.09,924.419 1317.8,924.694 1317.45,924.694C1317.09,924.694 1316.63,924.694 1316.27,924.694C1315.92,924.694 1315.64,924.967 1315.63,925.305C1315.63,926.651 1315.62,929.759 1315.61,929.826C1315.61,929.827 1315.61,929.828 1315.61,929.829C1315.61,930.125 1315.64,930.364 1315.68,930.548C1315.73,930.731 1315.8,930.878 1315.89,930.987C1315.98,931.096 1316.09,931.171 1316.21,931.21C1316.34,931.249 1316.48,931.268 1316.65,931.268C1316.94,931.268 1317.2,931.239 1317.43,931.18C1317.44,931.177 1317.45,931.174 1317.47,931.171C1317.64,931.127 1317.82,931.151 1317.97,931.239C1318.12,931.326 1318.22,931.469 1318.26,931.634C1318.34,932.011 1318.44,932.474 1318.52,932.805C1318.58,933.073 1318.45,933.347 1318.19,933.476C1317.91,933.616 1317.61,933.737 1317.28,933.835C1316.8,933.983 1316.22,934.057 1315.54,934.057C1315.07,934.057 1314.61,933.975 1314.18,933.811C1313.75,933.647 1313.36,933.399 1313.04,933.067C1312.71,932.735 1312.45,932.319 1312.25,931.819C1312.06,931.319 1311.96,930.737 1311.97,930.073C1311.97,930.073 1311.97,930.073 1311.97,930.073C1311.97,930.069 1311.99,926.724 1312,925.312C1312,925.148 1311.93,924.991 1311.82,924.875C1311.7,924.759 1311.53,924.694 1311.36,924.694C1311.21,924.694 1311.05,924.694 1310.9,924.694C1310.54,924.694 1310.26,924.419 1310.26,924.08C1310.26,923.545 1310.26,922.773 1310.26,922.237C1310.26,921.898 1310.54,921.624 1310.9,921.624C1311.06,921.624 1311.23,921.624 1311.38,921.624C1311.73,921.624 1312.02,921.352 1312.02,921.015C1312.03,920.436 1312.03,919.583 1312.04,919.095C1312.04,918.864 1312.18,918.653 1312.39,918.55C1312.93,918.292 1313.99,917.79 1314.76,917.423C1314.96,917.329 1315.19,917.34 1315.38,917.453C1315.57,917.565 1315.68,917.763 1315.68,917.976C1315.67,918.895 1315.67,920.233 1315.66,921.007Z" style="fill:rgb(41,46,57);fill-rule:nonzero;"/>
                    <path d="M1326.63,927.647C1326.63,926.764 1326.79,925.936 1327.11,925.163C1327.43,924.389 1327.88,923.714 1328.45,923.135C1329.02,922.557 1329.7,922.1 1330.49,921.764C1331.28,921.428 1332.14,921.26 1333.09,921.26C1334.04,921.26 1334.9,921.428 1335.7,921.764C1336.49,922.1 1337.17,922.557 1337.74,923.135C1338.31,923.714 1338.76,924.389 1339.07,925.163C1339.39,925.936 1339.55,926.764 1339.55,927.647C1339.55,928.53 1339.39,929.36 1339.08,930.137C1338.78,930.915 1338.34,931.594 1337.77,932.176C1337.2,932.759 1336.53,933.218 1335.73,933.553C1334.94,933.889 1334.06,934.057 1333.09,934.057C1332.11,934.057 1331.23,933.889 1330.43,933.553C1329.64,933.218 1328.96,932.76 1328.4,932.182C1327.84,931.604 1327.4,930.926 1327.1,930.149C1326.79,929.372 1326.63,928.538 1326.63,927.647ZM1330.14,927.647C1330.14,928.108 1330.21,928.532 1330.37,928.919C1330.53,929.305 1330.74,929.639 1331.01,929.921C1331.28,930.202 1331.59,930.421 1331.95,930.577C1332.3,930.733 1332.68,930.811 1333.09,930.811C1333.5,930.811 1333.89,930.735 1334.24,930.583C1334.6,930.43 1334.91,930.214 1335.17,929.932C1335.43,929.651 1335.64,929.317 1335.79,928.93C1335.93,928.544 1336.01,928.116 1336.01,927.647C1336.01,927.163 1335.93,926.725 1335.79,926.335C1335.64,925.944 1335.43,925.612 1335.17,925.339C1334.91,925.065 1334.6,924.856 1334.24,924.712C1333.89,924.567 1333.5,924.499 1333.09,924.507C1332.68,924.499 1332.3,924.567 1331.95,924.712C1331.59,924.856 1331.28,925.065 1331.01,925.339C1330.74,925.612 1330.53,925.944 1330.37,926.335C1330.21,926.725 1330.14,927.163 1330.14,927.647Z" style="fill:rgb(41,46,57);fill-rule:nonzero;"/>
                    <path d="M1347.61,922.237C1347.61,921.898 1347.9,921.624 1348.25,921.624C1349.18,921.624 1350.93,921.624 1352.07,921.624C1352.36,921.624 1352.64,921.735 1352.85,921.933C1353.05,922.13 1353.17,922.399 1353.17,922.678C1353.17,921.624 1353.17,921.711 1353.17,921.835C1353.17,921.993 1353.26,922.139 1353.4,922.216C1353.54,922.293 1353.72,922.289 1353.86,922.206C1354.17,922.02 1354.5,921.861 1354.85,921.729C1355.48,921.495 1356.12,921.378 1356.79,921.378C1357.71,921.378 1358.5,921.54 1359.16,921.864C1359.61,922.085 1359.99,922.385 1360.31,922.764C1360.42,922.893 1360.58,922.975 1360.75,922.988C1360.92,923.002 1361.09,922.947 1361.22,922.837C1361.34,922.743 1361.46,922.648 1361.59,922.555C1361.91,922.317 1362.26,922.11 1362.62,921.934C1362.99,921.759 1363.38,921.622 1363.78,921.524C1364.18,921.426 1364.59,921.378 1365.01,921.378C1366.5,921.378 1367.64,921.788 1368.44,922.608C1369.23,923.428 1369.63,924.628 1369.63,926.206L1369.63,929.94C1369.63,930.103 1369.7,930.259 1369.82,930.374C1369.94,930.489 1370.1,930.553 1370.27,930.553C1370.41,930.553 1370.57,930.553 1370.72,930.553C1370.89,930.553 1371.05,930.618 1371.17,930.733C1371.29,930.848 1371.35,931.004 1371.35,931.167C1371.35,931.737 1371.35,932.581 1371.35,933.151C1371.35,933.314 1371.29,933.47 1371.17,933.585C1371.05,933.7 1370.89,933.764 1370.72,933.764L1366.45,933.764C1366.1,933.764 1365.81,933.49 1365.81,933.151L1365.81,926.803C1365.81,926.116 1365.63,925.577 1365.28,925.186C1364.92,924.796 1364.43,924.6 1363.8,924.6C1363.36,924.6 1362.95,924.704 1362.56,924.911C1362.17,925.118 1361.79,925.475 1361.4,925.983C1361.41,926.069 1361.42,926.157 1361.42,926.247L1361.42,929.94C1361.42,930.279 1361.7,930.553 1362.05,930.553C1362.21,930.553 1362.38,930.553 1362.54,930.553C1362.89,930.553 1363.17,930.828 1363.17,931.167C1363.17,931.737 1363.17,932.581 1363.17,933.151C1363.17,933.314 1363.11,933.47 1362.99,933.585C1362.87,933.7 1362.71,933.764 1362.54,933.764L1358.27,933.764C1358.1,933.764 1357.94,933.7 1357.82,933.585C1357.7,933.47 1357.63,933.314 1357.63,933.151L1357.63,926.78C1357.63,926.452 1357.58,926.155 1357.48,925.889C1357.38,925.624 1357.24,925.397 1357.06,925.21C1356.88,925.022 1356.66,924.876 1356.42,924.77C1356.17,924.665 1355.9,924.608 1355.6,924.6C1355.21,924.593 1354.81,924.678 1354.39,924.858C1354.03,925.014 1353.68,925.286 1353.34,925.672C1353.25,925.782 1353.19,925.922 1353.19,926.065C1353.19,926.743 1353.19,928.877 1353.19,929.94C1353.19,930.103 1353.26,930.259 1353.38,930.374C1353.5,930.489 1353.66,930.553 1353.83,930.553C1354.04,930.553 1354.28,930.553 1354.5,930.553C1354.67,930.553 1354.83,930.618 1354.95,930.733C1355.07,930.848 1355.13,931.004 1355.13,931.167C1355.13,931.737 1355.13,932.581 1355.13,933.151C1355.13,933.314 1355.07,933.47 1354.95,933.585C1354.83,933.7 1354.67,933.764 1354.5,933.764C1353.08,933.764 1349.65,933.764 1348.23,933.764C1348.06,933.764 1347.89,933.7 1347.78,933.585C1347.66,933.47 1347.59,933.314 1347.59,933.151C1347.59,932.581 1347.59,931.737 1347.59,931.167C1347.59,931.004 1347.66,930.848 1347.78,930.733C1347.89,930.618 1348.06,930.553 1348.23,930.553C1348.4,930.553 1348.58,930.553 1348.76,930.553C1348.92,930.553 1349.09,930.489 1349.21,930.374C1349.33,930.259 1349.39,930.103 1349.39,929.94C1349.39,928.84 1349.39,926.548 1349.39,925.448C1349.39,925.286 1349.33,925.13 1349.21,925.014C1349.09,924.899 1348.92,924.835 1348.76,924.835L1348.25,924.835C1348.08,924.835 1347.92,924.77 1347.8,924.655C1347.68,924.54 1347.61,924.384 1347.61,924.221L1347.61,922.237Z" style="fill:rgb(41,46,57);fill-rule:nonzero;"/>
                    <path d="M1379.03,927.647C1379.03,926.764 1379.19,925.936 1379.51,925.163C1379.83,924.389 1380.28,923.714 1380.85,923.135C1381.42,922.557 1382.1,922.1 1382.89,921.764C1383.68,921.428 1384.54,921.26 1385.49,921.26C1386.43,921.26 1387.3,921.428 1388.1,921.764C1388.89,922.1 1389.57,922.557 1390.14,923.135C1390.71,923.714 1391.16,924.389 1391.47,925.163C1391.79,925.936 1391.95,926.764 1391.95,927.647C1391.95,928.53 1391.79,929.36 1391.48,930.137C1391.17,930.915 1390.74,931.594 1390.17,932.176C1389.61,932.759 1388.92,933.218 1388.13,933.553C1387.34,933.889 1386.46,934.057 1385.49,934.057C1384.51,934.057 1383.63,933.889 1382.84,933.553C1382.04,933.218 1381.37,932.76 1380.8,932.182C1380.24,931.604 1379.8,930.926 1379.5,930.149C1379.19,929.372 1379.03,928.538 1379.03,927.647ZM1382.54,927.647C1382.54,928.108 1382.62,928.532 1382.77,928.919C1382.93,929.305 1383.14,929.639 1383.41,929.921C1383.68,930.202 1383.99,930.421 1384.35,930.577C1384.7,930.733 1385.08,930.811 1385.49,930.811C1385.9,930.811 1386.29,930.735 1386.64,930.583C1387,930.43 1387.31,930.214 1387.57,929.932C1387.83,929.651 1388.04,929.317 1388.18,928.93C1388.33,928.544 1388.41,928.116 1388.41,927.647C1388.41,927.163 1388.33,926.725 1388.18,926.335C1388.04,925.944 1387.83,925.612 1387.57,925.339C1387.31,925.065 1387,924.856 1386.64,924.712C1386.29,924.567 1385.9,924.499 1385.49,924.507C1385.08,924.499 1384.7,924.567 1384.35,924.712C1383.99,924.856 1383.68,925.065 1383.41,925.339C1383.14,925.612 1382.93,925.944 1382.77,926.335C1382.62,926.725 1382.54,927.163 1382.54,927.647Z" style="fill:rgb(41,46,57);fill-rule:nonzero;"/>
                    <path d="M1404.57,921.007C1404.57,921.17 1404.64,921.327 1404.76,921.443C1404.88,921.559 1405.04,921.624 1405.21,921.624L1406.36,921.624C1406.71,921.624 1407,921.898 1407,922.237C1407,922.773 1407,923.545 1407,924.08C1407,924.419 1406.71,924.694 1406.36,924.694C1406,924.694 1405.54,924.694 1405.18,924.694C1404.83,924.694 1404.55,924.967 1404.54,925.305C1404.54,926.651 1404.52,929.759 1404.52,929.826C1404.52,929.827 1404.52,929.828 1404.52,929.829C1404.52,930.125 1404.55,930.364 1404.59,930.548C1404.64,930.731 1404.71,930.878 1404.8,930.987C1404.89,931.096 1405,931.171 1405.12,931.21C1405.25,931.249 1405.39,931.268 1405.56,931.268C1405.85,931.268 1406.11,931.239 1406.34,931.18C1406.35,931.177 1406.36,931.174 1406.38,931.171C1406.55,931.127 1406.73,931.151 1406.88,931.239C1407.02,931.326 1407.13,931.469 1407.17,931.634C1407.25,932.011 1407.35,932.474 1407.43,932.805C1407.49,933.073 1407.36,933.347 1407.1,933.476C1406.82,933.616 1406.52,933.737 1406.19,933.835C1405.7,933.983 1405.12,934.057 1404.45,934.057C1403.98,934.057 1403.52,933.975 1403.09,933.811C1402.65,933.647 1402.27,933.399 1401.95,933.067C1401.62,932.735 1401.36,932.319 1401.16,931.819C1400.96,931.319 1400.87,930.737 1400.88,930.073C1400.88,930.073 1400.88,930.073 1400.88,930.073C1400.88,930.069 1400.9,926.724 1400.91,925.312C1400.91,925.148 1400.85,924.991 1400.73,924.875C1400.61,924.759 1400.44,924.694 1400.27,924.694C1400.12,924.694 1399.96,924.694 1399.81,924.694C1399.45,924.694 1399.17,924.419 1399.17,924.08C1399.17,923.545 1399.17,922.773 1399.17,922.237C1399.17,921.898 1399.45,921.624 1399.81,921.624C1399.96,921.624 1400.13,921.624 1400.29,921.624C1400.64,921.624 1400.93,921.352 1400.93,921.015C1400.94,920.436 1400.94,919.583 1400.95,919.095C1400.95,918.864 1401.09,918.653 1401.3,918.55C1401.84,918.292 1402.9,917.79 1403.67,917.423C1403.87,917.329 1404.1,917.34 1404.29,917.453C1404.48,917.565 1404.59,917.763 1404.59,917.976C1404.58,918.895 1404.58,920.233 1404.57,921.007Z" style="fill:rgb(41,46,57);fill-rule:nonzero;"/>
                    <path d="M1415.64,922.237C1415.64,921.898 1415.92,921.624 1416.27,921.624C1417.32,921.624 1419.4,921.624 1420.45,921.624C1420.8,921.624 1421.09,921.898 1421.09,922.237C1421.09,923.87 1421.09,928.307 1421.09,929.94C1421.09,930.279 1421.37,930.553 1421.72,930.553C1421.86,930.553 1422,930.553 1422.14,930.553C1422.49,930.553 1422.77,930.828 1422.77,931.167C1422.77,931.737 1422.77,932.581 1422.77,933.151C1422.77,933.314 1422.7,933.47 1422.59,933.585C1422.47,933.7 1422.3,933.764 1422.14,933.764L1416.27,933.764C1416.1,933.764 1415.94,933.7 1415.82,933.585C1415.7,933.47 1415.64,933.314 1415.64,933.151L1415.64,931.167C1415.64,930.828 1415.92,930.553 1416.27,930.553C1416.45,930.553 1416.65,930.553 1416.83,930.553C1417.18,930.553 1417.46,930.279 1417.46,929.94C1417.46,928.84 1417.46,926.548 1417.46,925.448C1417.46,925.109 1417.18,924.835 1416.83,924.835C1416.65,924.835 1416.45,924.835 1416.27,924.835C1415.92,924.835 1415.64,924.56 1415.64,924.221C1415.64,923.651 1415.64,922.807 1415.64,922.237ZM1417.28,917.71C1417.28,917.421 1417.33,917.149 1417.43,916.895C1417.54,916.641 1417.69,916.421 1417.87,916.233C1418.06,916.046 1418.28,915.897 1418.54,915.788C1418.79,915.678 1419.07,915.624 1419.36,915.624C1419.64,915.624 1419.91,915.678 1420.16,915.788C1420.41,915.897 1420.63,916.046 1420.82,916.233C1421,916.421 1421.15,916.641 1421.26,916.895C1421.37,917.149 1421.42,917.421 1421.42,917.71C1421.42,917.999 1421.37,918.27 1421.26,918.524C1421.15,918.778 1421,918.999 1420.82,919.186C1420.63,919.374 1420.41,919.522 1420.16,919.632C1419.91,919.741 1419.64,919.796 1419.36,919.796C1419.07,919.796 1418.79,919.741 1418.54,919.632C1418.28,919.522 1418.06,919.374 1417.87,919.186C1417.69,918.999 1417.54,918.778 1417.43,918.524C1417.33,918.27 1417.28,917.999 1417.28,917.71Z" style="fill:rgb(41,46,57);fill-rule:nonzero;"/>
                    <path d="M1430.71,922.237C1430.71,921.898 1430.99,921.624 1431.35,921.624C1432.56,921.624 1435.2,921.624 1436.41,921.624C1436.76,921.624 1437.05,921.898 1437.05,922.237C1437.05,922.819 1437.05,923.686 1437.05,924.256C1437.05,924.576 1436.78,924.835 1436.45,924.835C1436.45,924.835 1436.45,924.835 1436.45,924.835C1436.25,924.835 1436.06,924.929 1435.95,925.086C1435.83,925.244 1435.8,925.446 1435.87,925.627C1436.16,926.372 1436.59,927.51 1436.94,928.446C1437.04,928.689 1437.28,928.85 1437.55,928.848C1437.81,928.847 1438.05,928.683 1438.14,928.439C1438.5,927.473 1438.93,926.292 1439.2,925.552C1439.26,925.387 1439.23,925.204 1439.13,925.062C1439.03,924.919 1438.86,924.835 1438.67,924.835C1438.67,924.835 1438.67,924.835 1438.67,924.835C1438.53,924.835 1438.4,924.782 1438.3,924.687C1438.2,924.593 1438.15,924.465 1438.15,924.331C1438.15,923.765 1438.15,922.845 1438.15,922.237C1438.15,921.898 1438.44,921.624 1438.79,921.624C1440,921.624 1442.64,921.624 1443.85,921.624C1444.2,921.624 1444.49,921.898 1444.49,922.237C1444.49,922.807 1444.49,923.651 1444.49,924.221C1444.49,924.384 1444.42,924.54 1444.3,924.655C1444.18,924.77 1444.02,924.835 1443.85,924.835C1443.67,924.835 1443.48,924.835 1443.31,924.835C1443.05,924.835 1442.81,924.99 1442.71,925.226C1442.12,926.705 1440.01,931.941 1439.41,933.42C1439.32,933.656 1439.08,933.811 1438.82,933.811L1436.11,933.811C1435.85,933.811 1435.62,933.656 1435.52,933.42C1434.92,931.941 1432.81,926.705 1432.21,925.226C1432.12,924.99 1431.88,924.835 1431.62,924.835C1431.53,924.835 1431.44,924.835 1431.35,924.835C1430.99,924.835 1430.71,924.56 1430.71,924.221C1430.71,923.651 1430.71,922.807 1430.71,922.237Z" style="fill:rgb(41,46,57);fill-rule:nonzero;"/>
                    <path d="M1455.69,928.456C1455.59,928.456 1455.5,928.494 1455.44,928.561C1455.38,928.627 1455.35,928.717 1455.36,928.807C1455.36,928.815 1455.36,928.819 1455.36,928.819C1455.44,929.171 1455.59,929.479 1455.8,929.745C1456,930.01 1456.25,930.233 1456.53,930.413C1456.81,930.593 1457.12,930.727 1457.47,930.817C1457.81,930.907 1458.16,930.952 1458.51,930.952C1458.86,930.952 1459.19,930.93 1459.51,930.887C1459.83,930.844 1460.13,930.786 1460.43,930.712C1460.73,930.637 1461.02,930.551 1461.3,930.454C1461.41,930.416 1461.52,930.377 1461.63,930.338C1461.93,930.229 1462.27,930.355 1462.41,930.631C1462.63,931.041 1462.95,931.627 1463.17,932.042C1463.33,932.329 1463.22,932.683 1462.93,932.85C1462.68,932.996 1462.44,933.127 1462.22,933.243C1461.85,933.434 1461.47,933.593 1461.1,933.718C1460.72,933.843 1460.33,933.934 1459.9,933.993C1459.48,934.051 1458.99,934.081 1458.43,934.081C1457.37,934.081 1456.43,933.907 1455.61,933.559C1454.79,933.212 1454.1,932.741 1453.55,932.147C1452.99,931.553 1452.56,930.858 1452.27,930.061C1451.98,929.264 1451.83,928.421 1451.83,927.53C1451.83,926.639 1451.98,925.803 1452.29,925.022C1452.6,924.241 1453.04,923.559 1453.6,922.977C1454.16,922.395 1454.83,921.936 1455.61,921.6C1456.39,921.264 1457.26,921.096 1458.22,921.096C1459.17,921.096 1460.01,921.255 1460.75,921.571C1461.49,921.887 1462.11,922.325 1462.62,922.884C1463.13,923.442 1463.52,924.098 1463.79,924.852C1464.07,925.606 1464.22,926.417 1464.24,927.284C1464.26,927.479 1464.28,927.673 1464.28,927.864C1464.28,927.864 1464.28,927.864 1464.28,927.864C1464.28,928.02 1464.22,928.171 1464.11,928.282C1464,928.393 1463.84,928.456 1463.68,928.456C1461.98,928.456 1457.07,928.456 1455.69,928.456ZM1458.12,924.026C1457.68,924.026 1457.31,924.079 1457,924.184C1456.69,924.29 1456.43,924.434 1456.22,924.618C1456.01,924.801 1455.84,925.01 1455.72,925.245C1455.72,925.245 1455.72,925.245 1455.72,925.245C1455.64,925.402 1455.64,925.59 1455.74,925.741C1455.83,925.891 1456,925.983 1456.19,925.983C1457.15,925.983 1458.79,925.983 1459.75,925.983C1459.94,925.983 1460.11,925.893 1460.22,925.742C1460.32,925.592 1460.34,925.401 1460.27,925.234C1460.27,925.234 1460.27,925.233 1460.27,925.233C1460.16,924.999 1460.02,924.792 1459.84,924.612C1459.66,924.432 1459.44,924.29 1459.16,924.184C1458.88,924.079 1458.54,924.026 1458.12,924.026Z" style="fill:rgb(41,46,57);fill-rule:nonzero;"/>
                    <path d="M1483.44,916.612C1483.44,916.273 1483.73,915.999 1484.08,915.999L1490.26,915.999C1491.07,915.999 1491.85,916.104 1492.6,916.315C1493.34,916.526 1494.04,916.823 1494.68,917.206C1495.33,917.589 1495.91,918.048 1496.44,918.583C1496.97,919.118 1497.42,919.714 1497.8,920.37C1498.17,921.026 1498.46,921.733 1498.66,922.491C1498.87,923.249 1498.97,924.038 1498.97,924.858C1498.97,925.678 1498.87,926.468 1498.66,927.225C1498.46,927.983 1498.17,928.692 1497.8,929.352C1497.42,930.012 1496.97,930.614 1496.44,931.157C1495.91,931.7 1495.33,932.165 1494.68,932.551C1494.04,932.938 1493.34,933.237 1492.6,933.448C1491.85,933.659 1491.07,933.764 1490.26,933.764L1484.08,933.764C1483.73,933.764 1483.44,933.49 1483.44,933.151C1483.44,932.581 1483.44,931.737 1483.44,931.167C1483.44,931.004 1483.51,930.848 1483.63,930.733C1483.75,930.618 1483.91,930.553 1484.08,930.553C1484.12,930.553 1484.17,930.553 1484.22,930.553C1484.39,930.553 1484.55,930.489 1484.67,930.374C1484.79,930.259 1484.86,930.103 1484.86,929.94C1484.86,927.968 1484.86,921.807 1484.86,919.835C1484.86,919.672 1484.79,919.516 1484.67,919.401C1484.55,919.286 1484.39,919.221 1484.22,919.221C1484.17,919.221 1484.12,919.221 1484.08,919.221C1483.73,919.221 1483.44,918.947 1483.44,918.608C1483.44,918.035 1483.44,917.185 1483.44,916.612ZM1489.38,919.221C1489.03,919.221 1488.75,919.496 1488.75,919.835L1488.75,929.94C1488.75,930.279 1489.03,930.553 1489.38,930.553L1490.24,930.553C1490.87,930.553 1491.47,930.405 1492.03,930.108C1492.59,929.811 1493.08,929.407 1493.49,928.895C1493.91,928.384 1494.24,927.782 1494.48,927.091C1494.72,926.399 1494.84,925.655 1494.84,924.858C1494.84,924.069 1494.72,923.331 1494.48,922.643C1494.24,921.956 1493.91,921.358 1493.49,920.85C1493.08,920.343 1492.59,919.944 1492.03,919.655C1491.47,919.366 1490.87,919.221 1490.24,919.221L1489.38,919.221Z" style="fill:rgb(41,46,57);fill-rule:nonzero;"/>
                    <path d="M1510.41,928.456C1510.32,928.456 1510.23,928.494 1510.16,928.561C1510.1,928.627 1510.07,928.717 1510.08,928.807C1510.08,928.815 1510.08,928.819 1510.08,928.819C1510.16,929.171 1510.31,929.479 1510.52,929.745C1510.73,930.01 1510.97,930.233 1511.25,930.413C1511.53,930.593 1511.85,930.727 1512.19,930.817C1512.53,930.907 1512.88,930.952 1513.23,930.952C1513.58,930.952 1513.92,930.93 1514.23,930.887C1514.55,930.844 1514.86,930.786 1515.15,930.712C1515.45,930.637 1515.74,930.551 1516.02,930.454C1516.13,930.416 1516.24,930.377 1516.35,930.338C1516.65,930.229 1516.99,930.355 1517.14,930.631C1517.36,931.041 1517.67,931.627 1517.89,932.042C1518.05,932.329 1517.94,932.683 1517.66,932.85C1517.4,932.996 1517.17,933.127 1516.94,933.243C1516.57,933.434 1516.2,933.593 1515.82,933.718C1515.45,933.843 1515.05,933.934 1514.63,933.993C1514.2,934.051 1513.71,934.081 1513.15,934.081C1512.1,934.081 1511.16,933.907 1510.34,933.559C1509.52,933.212 1508.83,932.741 1508.27,932.147C1507.71,931.553 1507.28,930.858 1506.99,930.061C1506.7,929.264 1506.55,928.421 1506.55,927.53C1506.55,926.639 1506.71,925.803 1507.02,925.022C1507.32,924.241 1507.76,923.559 1508.32,922.977C1508.88,922.395 1509.56,921.936 1510.34,921.6C1511.12,921.264 1511.99,921.096 1512.94,921.096C1513.89,921.096 1514.74,921.255 1515.48,921.571C1516.21,921.887 1516.84,922.325 1517.35,922.884C1517.85,923.442 1518.24,924.098 1518.52,924.852C1518.79,925.606 1518.94,926.417 1518.96,927.284C1518.99,927.479 1519,927.673 1519,927.864C1519,927.864 1519,927.864 1519,927.864C1519.01,928.02 1518.94,928.171 1518.83,928.282C1518.72,928.393 1518.56,928.456 1518.4,928.456C1516.7,928.456 1511.79,928.456 1510.41,928.456ZM1512.85,924.026C1512.41,924.026 1512.03,924.079 1511.73,924.184C1511.42,924.29 1511.16,924.434 1510.95,924.618C1510.74,924.801 1510.57,925.01 1510.44,925.245C1510.44,925.245 1510.44,925.245 1510.44,925.245C1510.36,925.402 1510.37,925.59 1510.46,925.741C1510.56,925.891 1510.73,925.983 1510.91,925.983C1511.87,925.983 1513.51,925.983 1514.47,925.983C1514.66,925.983 1514.84,925.893 1514.94,925.742C1515.04,925.592 1515.06,925.401 1514.99,925.234C1514.99,925.234 1514.99,925.233 1514.99,925.233C1514.89,924.999 1514.75,924.792 1514.57,924.612C1514.39,924.432 1514.16,924.29 1513.88,924.184C1513.61,924.079 1513.26,924.026 1512.85,924.026Z" style="fill:rgb(41,46,57);fill-rule:nonzero;"/>
                    <path d="M1531.65,921.007C1531.65,921.17 1531.71,921.327 1531.83,921.443C1531.95,921.559 1532.12,921.624 1532.29,921.624L1533.43,921.624C1533.79,921.624 1534.07,921.898 1534.07,922.237C1534.07,922.773 1534.07,923.545 1534.07,924.08C1534.07,924.419 1533.79,924.694 1533.43,924.694C1533.07,924.694 1532.62,924.694 1532.26,924.694C1531.9,924.694 1531.62,924.967 1531.62,925.305C1531.61,926.651 1531.6,929.759 1531.6,929.826C1531.6,929.827 1531.6,929.828 1531.6,929.829C1531.6,930.125 1531.62,930.364 1531.67,930.548C1531.72,930.731 1531.78,930.878 1531.87,930.987C1531.96,931.096 1532.07,931.171 1532.19,931.21C1532.32,931.249 1532.47,931.268 1532.63,931.268C1532.93,931.268 1533.19,931.239 1533.41,931.18C1533.43,931.177 1533.44,931.174 1533.45,931.171C1533.62,931.127 1533.8,931.151 1533.95,931.239C1534.1,931.326 1534.2,931.469 1534.24,931.634C1534.33,932.011 1534.43,932.474 1534.5,932.805C1534.56,933.073 1534.43,933.347 1534.18,933.476C1533.89,933.616 1533.59,933.737 1533.27,933.835C1532.78,933.983 1532.2,934.057 1531.53,934.057C1531.05,934.057 1530.6,933.975 1530.16,933.811C1529.73,933.647 1529.35,933.399 1529.02,933.067C1528.69,932.735 1528.43,932.319 1528.23,931.819C1528.04,931.319 1527.94,930.737 1527.95,930.073C1527.95,930.073 1527.95,930.073 1527.95,930.073C1527.95,930.069 1527.98,926.724 1527.98,925.312C1527.99,925.148 1527.92,924.991 1527.8,924.875C1527.68,924.759 1527.52,924.694 1527.35,924.694C1527.19,924.694 1527.03,924.694 1526.88,924.694C1526.53,924.694 1526.24,924.419 1526.24,924.08C1526.24,923.545 1526.24,922.773 1526.24,922.237C1526.24,921.898 1526.53,921.624 1526.88,921.624C1527.04,921.624 1527.21,921.624 1527.37,921.624C1527.72,921.624 1528,921.352 1528.01,921.015C1528.01,920.436 1528.02,919.583 1528.02,919.095C1528.02,918.864 1528.16,918.653 1528.38,918.55C1528.92,918.292 1529.97,917.79 1530.74,917.423C1530.94,917.329 1531.18,917.34 1531.36,917.453C1531.55,917.565 1531.66,917.763 1531.66,917.976C1531.66,918.895 1531.65,920.233 1531.65,921.007Z" style="fill:rgb(41,46,57);fill-rule:nonzero;"/>
                    <path d="M1550.17,933.504C1550.17,933.425 1550.13,933.352 1550.06,933.314C1549.99,933.276 1549.9,933.277 1549.83,933.318C1549.69,933.403 1549.55,933.479 1549.42,933.548C1549.2,933.669 1548.97,933.766 1548.75,933.841C1548.52,933.915 1548.28,933.969 1548.04,934.005C1547.8,934.04 1547.53,934.057 1547.25,934.057C1546.52,934.057 1545.87,933.958 1545.29,933.759C1544.72,933.559 1544.24,933.286 1543.84,932.938C1543.45,932.591 1543.14,932.18 1542.93,931.708C1542.72,931.235 1542.62,930.721 1542.62,930.167C1542.62,929.604 1542.72,929.085 1542.94,928.608C1543.15,928.132 1543.46,927.723 1543.87,927.384C1544.28,927.044 1544.77,926.778 1545.36,926.587C1545.95,926.395 1546.63,926.3 1547.39,926.3C1547.94,926.3 1548.45,926.329 1548.9,926.387C1549.22,926.428 1549.52,926.474 1549.8,926.527C1549.89,926.545 1549.99,926.522 1550.06,926.464C1550.13,926.407 1550.17,926.32 1550.17,926.229C1550.17,926.229 1550.17,926.229 1550.17,926.229C1550.17,926.229 1550.17,926.229 1550.17,926.229C1550.17,925.925 1550.12,925.661 1550,925.438C1549.88,925.216 1549.72,925.032 1549.51,924.887C1549.3,924.743 1549.04,924.637 1548.75,924.571C1548.45,924.505 1548.12,924.471 1547.77,924.471C1547.04,924.471 1546.39,924.544 1545.83,924.688C1545.47,924.781 1545.12,924.901 1544.78,925.048C1544.46,925.184 1544.09,925.053 1543.94,924.753C1543.76,924.374 1543.51,923.878 1543.33,923.518C1543.19,923.239 1543.29,922.904 1543.56,922.737C1544.22,922.338 1544.9,922.021 1545.6,921.788C1546.47,921.499 1547.39,921.354 1548.37,921.354C1549.13,921.354 1549.83,921.438 1550.47,921.606C1551.12,921.774 1551.67,922.048 1552.13,922.426C1552.59,922.805 1552.95,923.3 1553.22,923.909C1553.48,924.518 1553.61,925.26 1553.61,926.135L1553.61,929.94C1553.61,930.279 1553.89,930.553 1554.25,930.553C1554.36,930.553 1554.48,930.553 1554.6,930.553C1554.77,930.553 1554.93,930.618 1555.05,930.733C1555.17,930.848 1555.24,931.004 1555.24,931.167C1555.24,931.737 1555.24,932.581 1555.24,933.151C1555.24,933.314 1555.17,933.47 1555.05,933.585C1554.93,933.7 1554.77,933.764 1554.6,933.764L1550.44,933.764C1550.3,933.764 1550.17,933.648 1550.17,933.504C1550.17,933.504 1550.17,933.504 1550.17,933.504ZM1547.5,931.292C1548.06,931.292 1548.56,931.202 1549.01,931.022C1549.35,930.89 1549.64,930.737 1549.9,930.563C1550.07,930.448 1550.17,930.263 1550.17,930.065C1550.17,929.885 1550.17,929.65 1550.17,929.433C1550.17,929.094 1549.89,928.819 1549.54,928.819L1547.36,928.819C1547.18,928.819 1547.01,928.846 1546.84,928.901C1546.66,928.956 1546.51,929.034 1546.37,929.135C1546.24,929.237 1546.13,929.362 1546.04,929.51C1545.96,929.659 1545.92,929.831 1545.92,930.026C1545.92,930.385 1546.05,930.686 1546.31,930.928C1546.58,931.171 1546.97,931.292 1547.5,931.292Z" style="fill:rgb(41,46,57);fill-rule:nonzero;"/>
                    <path d="M1563.98,922.237C1563.98,921.898 1564.27,921.624 1564.62,921.624C1565.67,921.624 1567.75,921.624 1568.79,921.624C1569.15,921.624 1569.43,921.898 1569.43,922.237C1569.43,923.87 1569.43,928.307 1569.43,929.94C1569.43,930.279 1569.72,930.553 1570.07,930.553C1570.2,930.553 1570.35,930.553 1570.48,930.553C1570.83,930.553 1571.12,930.828 1571.12,931.167C1571.12,931.737 1571.12,932.581 1571.12,933.151C1571.12,933.314 1571.05,933.47 1570.93,933.585C1570.81,933.7 1570.65,933.764 1570.48,933.764L1564.62,933.764C1564.45,933.764 1564.29,933.7 1564.17,933.585C1564.05,933.47 1563.98,933.314 1563.98,933.151L1563.98,931.167C1563.98,930.828 1564.27,930.553 1564.62,930.553C1564.8,930.553 1564.99,930.553 1565.17,930.553C1565.53,930.553 1565.81,930.279 1565.81,929.94C1565.81,928.84 1565.81,926.548 1565.81,925.448C1565.81,925.109 1565.53,924.835 1565.17,924.835C1564.99,924.835 1564.8,924.835 1564.62,924.835C1564.27,924.835 1563.98,924.56 1563.98,924.221C1563.98,923.651 1563.98,922.807 1563.98,922.237ZM1565.62,917.71C1565.62,917.421 1565.67,917.149 1565.78,916.895C1565.89,916.641 1566.03,916.421 1566.22,916.233C1566.41,916.046 1566.63,915.897 1566.88,915.788C1567.14,915.678 1567.41,915.624 1567.71,915.624C1567.99,915.624 1568.26,915.678 1568.51,915.788C1568.76,915.897 1568.97,916.046 1569.16,916.233C1569.35,916.421 1569.5,916.641 1569.61,916.895C1569.72,917.149 1569.77,917.421 1569.77,917.71C1569.77,917.999 1569.72,918.27 1569.61,918.524C1569.5,918.778 1569.35,918.999 1569.16,919.186C1568.97,919.374 1568.76,919.522 1568.51,919.632C1568.26,919.741 1567.99,919.796 1567.71,919.796C1567.41,919.796 1567.14,919.741 1566.88,919.632C1566.63,919.522 1566.41,919.374 1566.22,919.186C1566.03,918.999 1565.89,918.778 1565.78,918.524C1565.67,918.27 1565.62,917.999 1565.62,917.71Z" style="fill:rgb(41,46,57);fill-rule:nonzero;"/>
                    <path d="M1579.27,916.144C1579.27,915.981 1579.33,915.825 1579.45,915.71C1579.57,915.595 1579.73,915.53 1579.9,915.53C1580.96,915.53 1583.05,915.53 1584.1,915.53C1584.45,915.53 1584.74,915.805 1584.74,916.144C1584.74,918.574 1584.74,927.51 1584.74,929.94C1584.74,930.279 1585.02,930.553 1585.38,930.553C1585.57,930.553 1585.78,930.553 1585.98,930.553C1586.33,930.553 1586.61,930.828 1586.61,931.167C1586.61,931.737 1586.61,932.581 1586.61,933.151C1586.61,933.314 1586.55,933.47 1586.43,933.585C1586.31,933.7 1586.15,933.764 1585.98,933.764L1579.9,933.764C1579.73,933.764 1579.57,933.7 1579.45,933.585C1579.33,933.47 1579.27,933.314 1579.27,933.151L1579.27,931.167C1579.27,930.828 1579.55,930.553 1579.9,930.553C1580.1,930.553 1580.31,930.553 1580.5,930.553C1580.86,930.553 1581.14,930.279 1581.14,929.94C1581.14,927.904 1581.14,921.39 1581.14,919.355C1581.14,919.016 1580.86,918.741 1580.5,918.741C1580.31,918.741 1580.1,918.741 1579.9,918.741C1579.55,918.741 1579.27,918.466 1579.27,918.127C1579.27,917.557 1579.27,916.714 1579.27,916.144Z" style="fill:rgb(41,46,57);fill-rule:nonzero;"/>
                    <path d="M1594.92,922.237C1594.92,921.898 1595.21,921.624 1595.56,921.624C1596.61,921.624 1598.69,921.624 1599.74,921.624C1600.09,921.624 1600.37,921.898 1600.37,922.237C1600.37,923.87 1600.37,928.307 1600.37,929.94C1600.37,930.279 1600.66,930.553 1601.01,930.553C1601.15,930.553 1601.29,930.553 1601.42,930.553C1601.78,930.553 1602.06,930.828 1602.06,931.167C1602.06,931.737 1602.06,932.581 1602.06,933.151C1602.06,933.314 1602,933.47 1601.88,933.585C1601.76,933.7 1601.59,933.764 1601.42,933.764L1595.56,933.764C1595.39,933.764 1595.23,933.7 1595.11,933.585C1594.99,933.47 1594.92,933.314 1594.92,933.151L1594.92,931.167C1594.92,930.828 1595.21,930.553 1595.56,930.553C1595.74,930.553 1595.94,930.553 1596.12,930.553C1596.47,930.553 1596.75,930.279 1596.75,929.94C1596.75,928.84 1596.75,926.548 1596.75,925.448C1596.75,925.109 1596.47,924.835 1596.12,924.835C1595.94,924.835 1595.74,924.835 1595.56,924.835C1595.21,924.835 1594.92,924.56 1594.92,924.221C1594.92,923.651 1594.92,922.807 1594.92,922.237ZM1596.57,917.71C1596.57,917.421 1596.62,917.149 1596.72,916.895C1596.83,916.641 1596.98,916.421 1597.16,916.233C1597.35,916.046 1597.57,915.897 1597.83,915.788C1598.08,915.678 1598.36,915.624 1598.65,915.624C1598.93,915.624 1599.2,915.678 1599.45,915.788C1599.7,915.897 1599.92,916.046 1600.11,916.233C1600.29,916.421 1600.44,916.641 1600.55,916.895C1600.66,917.149 1600.71,917.421 1600.71,917.71C1600.71,917.999 1600.66,918.27 1600.55,918.524C1600.44,918.778 1600.29,918.999 1600.11,919.186C1599.92,919.374 1599.7,919.522 1599.45,919.632C1599.2,919.741 1598.93,919.796 1598.65,919.796C1598.36,919.796 1598.08,919.741 1597.83,919.632C1597.57,919.522 1597.35,919.374 1597.16,919.186C1596.98,918.999 1596.83,918.778 1596.72,918.524C1596.62,918.27 1596.57,917.999 1596.57,917.71Z" style="fill:rgb(41,46,57);fill-rule:nonzero;"/>
                    <path d="M1620.44,933.151L1620.44,926.78C1620.44,926.1 1620.26,925.567 1619.9,925.18C1619.54,924.794 1619.07,924.6 1618.47,924.6C1618.07,924.6 1617.65,924.69 1617.24,924.87C1616.88,925.026 1616.53,925.302 1616.18,925.696C1616.09,925.806 1616.04,925.945 1616.04,926.089C1616.03,926.764 1616.03,928.882 1616.03,929.94C1616.03,930.279 1616.32,930.553 1616.67,930.553C1616.89,930.553 1617.14,930.553 1617.37,930.553C1617.53,930.553 1617.7,930.618 1617.82,930.733C1617.93,930.848 1618,931.004 1618,931.167C1618,931.737 1618,932.581 1618,933.151C1618,933.314 1617.93,933.47 1617.82,933.585C1617.7,933.7 1617.53,933.764 1617.37,933.764C1615.94,933.764 1612.52,933.764 1611.09,933.764C1610.92,933.764 1610.76,933.7 1610.64,933.585C1610.52,933.47 1610.45,933.314 1610.45,933.151C1610.45,932.581 1610.45,931.737 1610.45,931.167C1610.45,931.004 1610.52,930.848 1610.64,930.733C1610.76,930.618 1610.92,930.553 1611.09,930.553L1611.6,930.553C1611.77,930.553 1611.93,930.489 1612.05,930.374C1612.17,930.259 1612.24,930.103 1612.24,929.94L1612.24,925.448C1612.24,925.109 1611.95,924.835 1611.6,924.835C1611.44,924.835 1611.27,924.835 1611.12,924.835C1610.76,924.835 1610.48,924.56 1610.48,924.221C1610.48,923.651 1610.48,922.807 1610.48,922.237C1610.48,921.898 1610.76,921.624 1611.12,921.624C1612.04,921.624 1613.77,921.624 1614.9,921.624C1615.2,921.624 1615.48,921.736 1615.69,921.936C1615.89,922.136 1616.01,922.407 1616.01,922.69C1616.01,921.624 1616.01,921.71 1616.01,921.834C1616.01,921.995 1616.1,922.144 1616.25,922.223C1616.39,922.303 1616.57,922.3 1616.71,922.216C1617.03,922.032 1617.36,921.876 1617.72,921.747C1618.34,921.516 1619.01,921.401 1619.7,921.401C1621.16,921.401 1622.29,921.809 1623.08,922.626C1623.87,923.442 1624.26,924.635 1624.26,926.206L1624.26,929.94C1624.26,930.103 1624.33,930.259 1624.45,930.374C1624.57,930.489 1624.73,930.553 1624.9,930.553C1625.04,930.553 1625.2,930.553 1625.35,930.553C1625.51,930.553 1625.68,930.618 1625.8,930.733C1625.91,930.848 1625.98,931.004 1625.98,931.167C1625.98,931.737 1625.98,932.581 1625.98,933.151C1625.98,933.314 1625.91,933.47 1625.8,933.585C1625.68,933.7 1625.51,933.764 1625.35,933.764L1621.08,933.764C1620.91,933.764 1620.75,933.7 1620.63,933.585C1620.51,933.47 1620.44,933.314 1620.44,933.151Z" style="fill:rgb(41,46,57);fill-rule:nonzero;"/>
                    <path d="M1642.85,933.154C1642.84,933.148 1642.83,933.147 1642.81,933.154C1642.39,933.391 1641.96,933.564 1641.54,933.671C1641.1,933.78 1640.65,933.835 1640.2,933.835C1639.26,933.835 1638.4,933.675 1637.61,933.354C1636.82,933.034 1636.14,932.591 1635.57,932.024C1634.99,931.458 1634.54,930.788 1634.22,930.014C1633.9,929.241 1633.74,928.401 1633.74,927.495C1633.74,926.643 1633.9,925.841 1634.21,925.087C1634.52,924.333 1634.95,923.673 1635.5,923.106C1636.06,922.54 1636.72,922.093 1637.49,921.764C1638.27,921.436 1639.11,921.268 1640.01,921.26C1640.57,921.268 1641.08,921.327 1641.54,921.436C1641.96,921.535 1642.36,921.666 1642.73,921.829C1642.76,921.841 1642.79,921.839 1642.81,921.824C1642.83,921.81 1642.85,921.785 1642.85,921.758C1642.85,921.756 1642.85,921.755 1642.85,921.754C1642.85,921.682 1642.91,921.624 1642.98,921.624C1643.43,921.624 1644.9,921.624 1645.76,921.624C1645.93,921.624 1646.09,921.688 1646.21,921.803C1646.33,921.919 1646.4,922.075 1646.4,922.237L1646.4,933.26C1646.4,934.284 1646.22,935.169 1645.87,935.915C1645.52,936.661 1645.05,937.278 1644.46,937.766C1643.87,938.255 1643.18,938.618 1642.4,938.856C1641.62,939.094 1640.8,939.214 1639.94,939.214C1638.88,939.214 1637.9,939.069 1637,938.78C1636.3,938.557 1635.66,938.273 1635.08,937.929C1634.8,937.756 1634.7,937.403 1634.86,937.12C1635.11,936.678 1635.48,936.029 1635.74,935.567C1635.82,935.424 1635.95,935.317 1636.12,935.271C1636.28,935.225 1636.45,935.243 1636.6,935.322C1636.98,935.522 1637.38,935.688 1637.81,935.821C1638.44,936.02 1639.14,936.12 1639.92,936.12C1640.34,936.12 1640.73,936.073 1641.09,935.979C1641.44,935.885 1641.75,935.727 1642.01,935.505C1642.27,935.282 1642.48,934.983 1642.63,934.608C1642.77,934.233 1642.85,933.76 1642.85,933.19L1642.85,933.154ZM1640.32,930.589C1640.86,930.589 1641.36,930.45 1641.8,930.173C1642.19,929.928 1642.51,929.614 1642.75,929.232C1642.81,929.138 1642.85,929.029 1642.85,928.918C1642.85,928.404 1642.87,926.79 1642.87,926.28C1642.87,926.171 1642.84,926.063 1642.79,925.968C1642.53,925.549 1642.19,925.21 1641.78,924.952C1641.32,924.663 1640.82,924.514 1640.28,924.507C1639.9,924.514 1639.52,924.591 1639.16,924.735C1638.79,924.88 1638.47,925.085 1638.2,925.35C1637.93,925.616 1637.72,925.93 1637.56,926.294C1637.41,926.657 1637.33,927.061 1637.33,927.507C1637.33,927.975 1637.41,928.401 1637.56,928.784C1637.72,929.167 1637.93,929.491 1638.2,929.757C1638.46,930.022 1638.78,930.227 1639.14,930.372C1639.5,930.516 1639.89,930.589 1640.32,930.589Z" style="fill:rgb(41,46,57);fill-rule:nonzero;"/>
                </g>
                <g transform="matrix(12.794,0,0,13.2822,-15158.9,-11305.4)">
                    <path d="M1276.97,921.401C1276.72,921.401 1276.48,921.287 1276.34,921.093C1275.99,920.628 1275.67,920.287 1275.38,920.071C1275.03,919.809 1274.65,919.622 1274.24,919.509C1273.84,919.395 1273.41,919.339 1272.96,919.339C1272.31,919.339 1271.7,919.485 1271.14,919.778C1270.57,920.071 1270.09,920.469 1269.68,920.973C1269.27,921.477 1268.94,922.063 1268.71,922.731C1268.48,923.399 1268.36,924.108 1268.36,924.858C1268.36,925.616 1268.47,926.329 1268.7,926.997C1268.93,927.665 1269.25,928.249 1269.66,928.749C1270.07,929.249 1270.55,929.645 1271.11,929.938C1271.67,930.231 1272.29,930.378 1272.96,930.378C1273.43,930.378 1273.87,930.301 1274.28,930.149C1274.68,929.997 1275.05,929.796 1275.38,929.546C1275.72,929.296 1276.01,929.009 1276.26,928.684C1276.38,928.528 1276.49,928.368 1276.58,928.205C1276.76,927.901 1277.13,927.754 1277.48,927.851C1278.12,928.028 1279.12,928.307 1279.82,928.502C1280.03,928.562 1280.21,928.707 1280.31,928.902C1280.4,929.096 1280.41,929.32 1280.32,929.518C1280.11,929.986 1279.85,930.431 1279.55,930.852C1279.08,931.505 1278.52,932.069 1277.86,932.546C1277.2,933.022 1276.45,933.397 1275.63,933.671C1274.81,933.944 1273.92,934.081 1272.96,934.081C1272.16,934.081 1271.39,933.971 1270.66,933.753C1269.92,933.534 1269.24,933.225 1268.6,932.827C1267.96,932.428 1267.38,931.948 1266.87,931.385C1266.35,930.823 1265.9,930.2 1265.54,929.516C1265.17,928.833 1264.88,928.098 1264.68,927.313C1264.48,926.528 1264.37,925.71 1264.37,924.858C1264.37,923.585 1264.6,922.391 1265.04,921.278C1265.49,920.165 1266.1,919.192 1266.87,918.36C1267.64,917.528 1268.55,916.872 1269.6,916.391C1270.64,915.911 1271.76,915.671 1272.96,915.671C1273.92,915.671 1274.73,915.79 1275.39,916.028C1275.99,916.244 1276.64,916.652 1277.34,917.251C1277.48,917.372 1277.67,917.439 1277.86,917.439C1278.23,917.44 1278.88,917.44 1279.4,917.44C1279.83,917.44 1280.18,917.777 1280.18,918.193L1280.18,920.648C1280.18,921.064 1279.83,921.401 1279.4,921.401L1276.97,921.401Z" style="fill:rgb(41,46,57);fill-rule:nonzero;"/>
                    <path d="M1290.21,933.433C1290.21,933.369 1290.18,933.309 1290.12,933.277C1290.06,933.246 1289.99,933.248 1289.93,933.282C1289.77,933.381 1289.61,933.47 1289.46,933.548C1289.24,933.669 1289.01,933.766 1288.79,933.841C1288.56,933.915 1288.32,933.969 1288.08,934.005C1287.84,934.04 1287.57,934.057 1287.29,934.057C1286.56,934.057 1285.91,933.958 1285.33,933.759C1284.76,933.559 1284.28,933.286 1283.88,932.938C1283.49,932.591 1283.18,932.18 1282.97,931.708C1282.76,931.235 1282.66,930.721 1282.66,930.167C1282.66,929.604 1282.76,929.085 1282.98,928.608C1283.19,928.132 1283.5,927.723 1283.91,927.384C1284.32,927.044 1284.81,926.778 1285.4,926.587C1285.99,926.395 1286.67,926.3 1287.42,926.3C1287.98,926.3 1288.49,926.329 1288.94,926.387C1289.26,926.428 1289.56,926.474 1289.84,926.527C1289.93,926.545 1290.03,926.522 1290.1,926.464C1290.17,926.407 1290.21,926.32 1290.21,926.229C1290.21,926.229 1290.21,926.229 1290.21,926.229C1290.21,926.229 1290.21,926.229 1290.21,926.229C1290.21,925.925 1290.16,925.661 1290.04,925.438C1289.92,925.216 1289.76,925.032 1289.55,924.887C1289.34,924.743 1289.08,924.637 1288.79,924.571C1288.49,924.505 1288.16,924.471 1287.81,924.471C1287.08,924.471 1286.43,924.544 1285.87,924.688C1285.55,924.771 1285.24,924.875 1284.93,925C1284.55,925.157 1284.11,924.995 1283.93,924.632C1283.77,924.313 1283.58,923.936 1283.43,923.629C1283.26,923.283 1283.38,922.869 1283.72,922.666C1284.34,922.301 1284.98,922.007 1285.64,921.788C1286.51,921.499 1287.43,921.354 1288.41,921.354C1289.17,921.354 1289.87,921.438 1290.51,921.606C1291.16,921.774 1291.71,922.048 1292.17,922.426C1292.63,922.805 1292.99,923.3 1293.26,923.909C1293.52,924.518 1293.65,925.26 1293.65,926.135L1293.65,929.801C1293.65,930 1293.73,930.192 1293.88,930.333C1294.02,930.474 1294.22,930.553 1294.43,930.553L1294.5,930.553C1294.93,930.553 1295.28,930.891 1295.28,931.306L1295.28,933.012C1295.28,933.211 1295.19,933.403 1295.05,933.544C1294.9,933.685 1294.7,933.764 1294.5,933.764L1290.56,933.764C1290.37,933.764 1290.21,933.616 1290.21,933.433L1290.21,933.433ZM1287.54,931.292C1288.1,931.292 1288.6,931.202 1289.05,931.022C1289.36,930.903 1289.63,930.766 1289.87,930.613C1290.08,930.473 1290.21,930.241 1290.21,929.992C1290.21,929.865 1290.21,929.718 1290.21,929.572C1290.21,929.156 1289.86,928.819 1289.43,928.819L1287.4,928.819C1287.22,928.819 1287.05,928.846 1286.87,928.901C1286.7,928.956 1286.55,929.034 1286.41,929.135C1286.28,929.237 1286.16,929.362 1286.08,929.51C1286,929.659 1285.96,929.831 1285.96,930.026C1285.96,930.385 1286.09,930.686 1286.35,930.928C1286.62,931.171 1287.01,931.292 1287.54,931.292Z" style="fill:rgb(41,46,57);fill-rule:nonzero;"/>
                    <path d="M1308.77,925.289C1308.77,925.705 1308.41,926.042 1307.98,926.042L1306.11,926.042C1305.76,926.042 1305.47,925.767 1305.47,925.429L1305.47,925.429C1305.47,925.254 1305.39,925.087 1305.26,924.972C1305.12,924.857 1304.94,924.805 1304.76,924.828C1304.7,924.836 1304.65,924.844 1304.59,924.852C1304.33,924.895 1304.1,924.968 1303.9,925.069C1303.7,925.171 1303.53,925.311 1303.39,925.491C1303.28,925.645 1303.19,925.832 1303.13,926.049C1303.12,926.109 1303.11,926.169 1303.11,926.231C1303.11,926.637 1303.11,928.674 1303.11,929.801C1303.11,930 1303.19,930.192 1303.33,930.333C1303.48,930.474 1303.68,930.553 1303.89,930.553C1304.18,930.553 1304.51,930.553 1304.8,930.553C1305,930.553 1305.2,930.633 1305.35,930.774C1305.5,930.915 1305.58,931.107 1305.58,931.306C1305.58,931.82 1305.58,932.498 1305.58,933.012C1305.58,933.211 1305.5,933.403 1305.35,933.544C1305.2,933.685 1305,933.764 1304.8,933.764L1298.44,933.764C1298.23,933.764 1298.03,933.685 1297.88,933.544C1297.74,933.403 1297.66,933.211 1297.66,933.012L1297.66,931.306C1297.66,931.107 1297.74,930.915 1297.88,930.774C1298.03,930.633 1298.23,930.553 1298.44,930.553L1298.69,930.553C1298.9,930.553 1299.1,930.474 1299.24,930.333C1299.39,930.192 1299.47,930 1299.47,929.801L1299.47,925.588C1299.47,925.172 1299.12,924.835 1298.69,924.835L1298.46,924.835C1298.03,924.835 1297.68,924.498 1297.68,924.082L1297.68,922.377C1297.68,922.177 1297.76,921.985 1297.91,921.844C1298.06,921.703 1298.25,921.624 1298.46,921.624L1302.78,921.624C1302.86,921.624 1302.93,921.655 1302.99,921.71C1303.05,921.766 1303.08,921.841 1303.08,921.919C1303.08,921.919 1303.08,921.919 1303.08,921.919C1303.08,922.024 1303.14,922.121 1303.24,922.173C1303.33,922.224 1303.45,922.222 1303.54,922.168C1303.76,922.039 1303.99,921.932 1304.24,921.846C1304.67,921.698 1305.14,921.624 1305.65,921.624C1306.16,921.624 1306.69,921.628 1307.24,921.635C1307.5,921.639 1307.75,921.642 1307.99,921.644C1308.42,921.647 1308.77,921.983 1308.77,922.397C1308.77,923.204 1308.77,924.48 1308.77,925.289Z" style="fill:rgb(41,46,57);fill-rule:nonzero;"/>
                    <path d="M1310.76,922.377C1310.76,922.177 1310.84,921.985 1310.99,921.844C1311.13,921.703 1311.33,921.624 1311.54,921.624L1315.42,921.624C1315.86,921.624 1316.21,921.961 1316.21,922.377C1316.21,924.061 1316.21,928.116 1316.21,929.801C1316.21,930.216 1316.56,930.553 1316.99,930.553C1317.03,930.553 1317.07,930.553 1317.11,930.553C1317.54,930.553 1317.89,930.891 1317.89,931.306L1317.89,933.012C1317.89,933.211 1317.81,933.403 1317.66,933.544C1317.52,933.685 1317.32,933.764 1317.11,933.764L1311.54,933.764C1311.33,933.764 1311.13,933.685 1310.99,933.544C1310.84,933.403 1310.76,933.211 1310.76,933.012L1310.76,931.306C1310.76,931.107 1310.84,930.915 1310.99,930.774C1311.13,930.633 1311.33,930.553 1311.54,930.553C1311.63,930.553 1311.72,930.553 1311.8,930.553C1312.01,930.553 1312.21,930.474 1312.36,930.333C1312.5,930.192 1312.59,930 1312.59,929.801C1312.59,928.705 1312.59,926.683 1312.59,925.588C1312.59,925.388 1312.5,925.196 1312.36,925.055C1312.21,924.914 1312.01,924.835 1311.8,924.835C1311.72,924.835 1311.63,924.835 1311.54,924.835C1311.33,924.835 1311.13,924.755 1310.99,924.614C1310.84,924.473 1310.76,924.281 1310.76,924.082C1310.76,923.568 1310.76,922.89 1310.76,922.377ZM1312.4,917.71C1312.4,917.421 1312.45,917.149 1312.56,916.895C1312.66,916.641 1312.81,916.421 1313,916.233C1313.18,916.046 1313.4,915.897 1313.66,915.788C1313.91,915.678 1314.19,915.624 1314.48,915.624C1314.77,915.624 1315.03,915.678 1315.28,915.788C1315.53,915.897 1315.75,916.046 1315.94,916.233C1316.12,916.421 1316.27,916.641 1316.38,916.895C1316.49,917.149 1316.55,917.421 1316.55,917.71C1316.55,917.999 1316.49,918.27 1316.38,918.524C1316.27,918.778 1316.12,918.999 1315.94,919.186C1315.75,919.374 1315.53,919.522 1315.28,919.632C1315.03,919.741 1314.77,919.796 1314.48,919.796C1314.19,919.796 1313.91,919.741 1313.66,919.632C1313.4,919.522 1313.18,919.374 1313,919.186C1312.81,918.999 1312.66,918.778 1312.56,918.524C1312.45,918.27 1312.4,917.999 1312.4,917.71Z" style="fill:rgb(41,46,57);fill-rule:nonzero;"/>
                    <path d="M1334.04,933.764C1333.84,933.764 1333.65,933.687 1333.5,933.549C1333.36,933.412 1333.28,933.225 1333.28,933.03C1333.28,933.03 1333.28,933.03 1333.28,933.03C1333.28,932.733 1333.1,932.464 1332.81,932.346C1332.53,932.228 1332.2,932.285 1331.98,932.489C1331.94,932.526 1331.9,932.56 1331.86,932.593C1331.4,932.991 1330.88,933.311 1330.3,933.553C1329.72,933.796 1328.94,933.913 1327.96,933.905C1327.48,933.897 1326.99,933.841 1326.51,933.735C1326.02,933.63 1325.55,933.481 1325.1,933.29C1324.65,933.098 1324.2,932.868 1323.77,932.598C1323.34,932.329 1322.94,932.018 1322.59,931.667C1321.73,930.792 1321.05,929.778 1320.57,928.626C1320.09,927.473 1319.85,926.218 1319.85,924.858C1319.85,924.022 1319.95,923.214 1320.16,922.432C1320.36,921.651 1320.64,920.921 1321.01,920.241C1321.38,919.561 1321.82,918.942 1322.34,918.384C1322.86,917.825 1323.44,917.346 1324.08,916.948C1324.71,916.55 1325.4,916.241 1326.13,916.022C1326.87,915.803 1327.64,915.694 1328.44,915.694C1329.36,915.694 1330.16,915.817 1330.84,916.063C1331.46,916.287 1332.12,916.685 1332.82,917.26C1332.96,917.376 1333.14,917.439 1333.33,917.439C1333.7,917.44 1334.36,917.44 1334.88,917.44C1335.31,917.44 1335.66,917.777 1335.66,918.193L1335.66,920.648C1335.66,921.064 1335.31,921.401 1334.88,921.401L1332.46,921.401C1332.2,921.401 1331.96,921.28 1331.82,921.078C1331.54,920.687 1331.28,920.392 1331.03,920.194C1330.71,919.944 1330.37,919.737 1329.99,919.573C1329.62,919.409 1329.11,919.327 1328.44,919.327C1327.79,919.327 1327.17,919.475 1326.61,919.772C1326.05,920.069 1325.56,920.469 1325.15,920.973C1324.74,921.477 1324.42,922.071 1324.19,922.755C1323.95,923.438 1323.84,924.139 1323.84,924.858C1323.84,925.569 1323.94,926.245 1324.15,926.885C1324.36,927.526 1324.68,928.102 1325.11,928.614C1325.54,929.126 1326.04,929.518 1326.61,929.792C1327.18,930.065 1327.79,930.202 1328.44,930.202C1329.27,930.202 1329.99,929.96 1330.61,929.475C1330.9,929.246 1331.15,928.977 1331.37,928.669C1331.53,928.439 1331.55,928.141 1331.41,927.896C1331.28,927.65 1331.01,927.496 1330.72,927.496C1330.26,927.495 1329.75,927.495 1329.34,927.495C1329.13,927.495 1328.93,927.416 1328.79,927.274C1328.64,927.133 1328.56,926.942 1328.56,926.742L1328.56,925.037C1328.56,924.837 1328.64,924.646 1328.79,924.504C1328.93,924.363 1329.13,924.284 1329.34,924.284C1330.91,924.284 1334.43,924.284 1336,924.284C1336.21,924.284 1336.41,924.363 1336.56,924.504C1336.7,924.646 1336.79,924.837 1336.79,925.037C1336.79,926.811 1336.79,931.237 1336.79,933.012C1336.79,933.427 1336.43,933.764 1336,933.764C1335.42,933.764 1334.62,933.764 1334.04,933.764Z" style="fill:url(#_Linear2);fill-rule:nonzero;"/>
                    <path d="M1347.61,934.081C1346.81,934.081 1346.04,933.971 1345.3,933.753C1344.57,933.534 1343.88,933.225 1343.25,932.827C1342.61,932.428 1342.03,931.95 1341.51,931.391C1340.99,930.833 1340.55,930.212 1340.18,929.528C1339.82,928.844 1339.53,928.112 1339.33,927.331C1339.12,926.55 1339.02,925.733 1339.02,924.882C1339.02,924.03 1339.12,923.212 1339.33,922.426C1339.53,921.641 1339.82,920.907 1340.18,920.223C1340.55,919.54 1340.99,918.919 1341.51,918.36C1342.03,917.801 1342.61,917.323 1343.25,916.925C1343.88,916.526 1344.57,916.218 1345.3,915.999C1346.04,915.78 1346.81,915.671 1347.61,915.671C1348.42,915.671 1349.19,915.78 1349.93,915.999C1350.66,916.218 1351.35,916.526 1351.99,916.925C1352.63,917.323 1353.2,917.801 1353.72,918.36C1354.24,918.919 1354.69,919.54 1355.06,920.223C1355.43,920.907 1355.72,921.641 1355.92,922.426C1356.12,923.212 1356.23,924.03 1356.23,924.882C1356.23,925.725 1356.12,926.54 1355.92,927.325C1355.72,928.11 1355.43,928.844 1355.06,929.528C1354.69,930.212 1354.24,930.833 1353.72,931.391C1353.2,931.95 1352.63,932.428 1351.99,932.827C1351.35,933.225 1350.66,933.534 1349.93,933.753C1349.19,933.971 1348.42,934.081 1347.61,934.081ZM1347.61,930.401C1348.29,930.401 1348.91,930.255 1349.48,929.962C1350.05,929.669 1350.54,929.27 1350.94,928.766C1351.35,928.262 1351.66,927.676 1351.88,927.009C1352.11,926.341 1352.22,925.632 1352.22,924.882C1352.22,924.124 1352.11,923.409 1351.88,922.737C1351.65,922.065 1351.33,921.477 1350.92,920.973C1350.51,920.469 1350.03,920.071 1349.46,919.778C1348.9,919.485 1348.29,919.339 1347.61,919.339C1346.94,919.339 1346.32,919.485 1345.76,919.778C1345.2,920.071 1344.71,920.469 1344.31,920.973C1343.9,921.477 1343.58,922.065 1343.35,922.737C1343.12,923.409 1343.01,924.124 1343.01,924.882C1343.01,925.632 1343.12,926.341 1343.35,927.009C1343.58,927.676 1343.9,928.262 1344.31,928.766C1344.71,929.27 1345.2,929.669 1345.76,929.962C1346.32,930.255 1346.94,930.401 1347.61,930.401Z" style="fill:url(#_Linear3);fill-rule:nonzero;"/>
                </g>
            </g>
        </g>
    </g>
    <defs>
        <linearGradient id="_Linear1" x1="0" y1="0" x2="1" y2="0" gradientUnits="userSpaceOnUse" gradientTransform="matrix(3.48422e-14,-569.016,569.016,3.48422e-14,765.59,1302.47)"><stop offset="0" style="stop-color:rgb(102,232,104);stop-opacity:1"/><stop offset="1" style="stop-color:rgb(45,189,193);stop-opacity:1"/></linearGradient>
        <linearGradient id="_Linear2" x1="0" y1="0" x2="1" y2="0" gradientUnits="userSpaceOnUse" gradientTransform="matrix(1.16214e-15,-18.2816,18.9792,1.11943e-15,1333.63,933.905)"><stop offset="0" style="stop-color:rgb(102,232,104);stop-opacity:1"/><stop offset="1" style="stop-color:rgb(44,189,195);stop-opacity:1"/></linearGradient>
        <linearGradient id="_Linear3" x1="0" y1="0" x2="1" y2="0" gradientUnits="userSpaceOnUse" gradientTransform="matrix(1.16214e-15,-18.2816,18.9792,1.11943e-15,1333.63,933.905)"><stop offset="0" style="stop-color:rgb(102,232,104);stop-opacity:1"/><stop offset="1" style="stop-color:rgb(44,189,195);stop-opacity:1"/></linearGradient>
    </defs>
</svg>
