<?xml version="1.0" encoding="UTF-8" standalone="no"?>
<!DOCTYPE svg PUBLIC "-//W3C//DTD SVG 1.1//EN" "http://www.w3.org/Graphics/SVG/1.1/DTD/svg11.dtd">
<svg width="100%" height="100%" viewBox="0 0 3597 1376" version="1.1" xmlns="http://www.w3.org/2000/svg" xmlns:xlink="http://www.w3.org/1999/xlink" xml:space="preserve" xmlns:serif="http://www.serif.com/" style="fill-rule:evenodd;clip-rule:evenodd;stroke-linejoin:round;stroke-miterlimit:2;">
    <g transform="matrix(1,0,0,1,-10365,-11181)">
        <g id="Inline-Logo-Light" serif:id="Inline Logo Light" transform="matrix(1.75582,0,0,0.895182,6593.75,11181.6)">
            <rect x="2148" y="0" width="2048" height="1536" style="fill:none;"/>
            <g id="Logo" transform="matrix(1.18653,0,0,2.32727,-591.673,-1019.35)">
                <g id="Logo-Text" serif:id="Logo Text" transform="matrix(1,0,0,1,2524.43,-376.705)">
                    <g id="Valink-Text" serif:id="Valink Text" transform="matrix(12.6207,0,0,12.6207,-6977.66,-16418.6)">
                        <g id="v" transform="matrix(1,0,0,1,0,0.24)">
                            <path d="M596.513,1379.84L596.513,1379.56L599.441,1379.56L604.145,1391.82L607.481,1383.18L608.849,1379.56L611.753,1379.56L611.753,1379.84L605.153,1396.36L603.089,1396.36L596.513,1379.84Z" style="fill:rgb(225,227,238);fill-rule:nonzero;"/>
                        </g>
                        <path id="a" d="M618.497,1396.6C617.265,1396.6 616.165,1396.31 615.197,1395.74C614.229,1395.18 613.473,1394.39 612.929,1393.39C612.385,1392.39 612.113,1391.26 612.113,1390C612.113,1388.73 612.385,1387.6 612.929,1386.59C613.473,1385.58 614.229,1384.8 615.197,1384.24C616.165,1383.68 617.265,1383.4 618.497,1383.4C619.377,1383.4 620.193,1383.54 620.945,1383.84C621.697,1384.14 622.353,1384.56 622.913,1385.1L622.961,1383.64L625.481,1383.64L625.481,1396.36L622.961,1396.36L622.913,1394.87C622.353,1395.43 621.697,1395.86 620.945,1396.15C620.193,1396.45 619.377,1396.6 618.497,1396.6ZM614.825,1390C614.825,1390.8 614.997,1391.51 615.341,1392.13C615.685,1392.76 616.161,1393.24 616.769,1393.58C617.377,1393.93 618.065,1394.1 618.833,1394.1C619.617,1394.1 620.313,1393.93 620.921,1393.58C621.529,1393.24 622.005,1392.76 622.349,1392.13C622.693,1391.51 622.865,1390.8 622.865,1390C622.865,1389.2 622.693,1388.48 622.349,1387.86C622.005,1387.24 621.529,1386.75 620.921,1386.41C620.313,1386.06 619.617,1385.89 618.833,1385.89C618.065,1385.89 617.377,1386.06 616.769,1386.41C616.161,1386.75 615.685,1387.24 615.341,1387.86C614.997,1388.48 614.825,1389.2 614.825,1390Z" style="fill:rgb(225,227,238);fill-rule:nonzero;"/>
                        <g id="l" transform="matrix(1,0,0,1,0,0.24)">
                            <rect x="629.921" y="1379.56" width="2.664" height="16.8" style="fill:rgb(225,227,238);fill-rule:nonzero;"/>
                        </g>
                        <g id="i" transform="matrix(1,0,0,1,0,0.24)">
                            <path d="M637.049,1383.64L639.713,1383.64L639.713,1396.36L637.049,1396.36L637.049,1383.64ZM636.545,1380.42C636.545,1379.89 636.721,1379.46 637.073,1379.11C637.425,1378.77 637.865,1378.6 638.393,1378.6C638.921,1378.6 639.361,1378.77 639.713,1379.11C640.065,1379.46 640.241,1379.89 640.241,1380.42C640.241,1380.93 640.065,1381.36 639.713,1381.69C639.361,1382.03 638.921,1382.2 638.393,1382.2C637.865,1382.2 637.425,1382.03 637.073,1381.69C636.721,1381.36 636.545,1380.93 636.545,1380.42Z" style="fill:rgb(225,227,238);fill-rule:nonzero;"/>
                        </g>
                        <g id="n" transform="matrix(1,0,0,1,0,0.24)">
                            <path d="M644.177,1383.64L646.793,1383.64L646.817,1385.2C647.921,1384.01 649.353,1383.42 651.113,1383.42C652.761,1383.42 654.033,1383.92 654.929,1384.92C655.825,1385.92 656.273,1387.34 656.273,1389.18L656.273,1396.36L653.609,1396.36L653.609,1389.37C653.609,1388.2 653.349,1387.32 652.829,1386.73C652.309,1386.14 651.537,1385.84 650.513,1385.84C649.393,1385.84 648.501,1386.16 647.837,1386.8C647.173,1387.44 646.841,1388.3 646.841,1389.37L646.841,1396.36L644.177,1396.36L644.177,1383.64Z" style="fill:rgb(225,227,238);fill-rule:nonzero;"/>
                        </g>
                        <g id="k" transform="matrix(1.20149,0,0,1,-135.305,0.24)">
                            <path d="M664.581,1391.7L664.581,1396.36L662.364,1396.36L662.364,1379.56L664.581,1379.56L664.581,1388.21L668.033,1383.64L671.105,1383.64L671.105,1383.83L666.353,1389.9L671.513,1396.16L671.513,1396.36L668.297,1396.36L664.581,1391.7Z" style="fill:rgb(225,227,238);"/>
                        </g>
                    </g>
                    <g id="Solutions-Ltd.-Text" serif:id="Solutions Ltd. Text" transform="matrix(3.9487,0,0,3.9487,-1887.64,-3979.9)">
                        <g id="S" transform="matrix(1,0,0,1,0,0.072)">
                            <path d="M624.255,1338.62C622.223,1338.62 620.611,1338.13 619.419,1337.14C618.227,1336.16 617.591,1334.75 617.511,1332.93L621.951,1332.93C622.047,1334.07 622.815,1334.63 624.255,1334.63C624.895,1334.63 625.399,1334.52 625.767,1334.29C626.135,1334.05 626.319,1333.75 626.319,1333.36C626.319,1332.93 626.099,1332.59 625.659,1332.33C625.219,1332.07 624.479,1331.87 623.439,1331.71C621.599,1331.42 620.183,1330.88 619.191,1330.1C618.199,1329.31 617.703,1328.16 617.703,1326.64C617.703,1325.54 617.975,1324.59 618.519,1323.79C619.063,1322.99 619.819,1322.37 620.787,1321.95C621.755,1321.53 622.863,1321.31 624.111,1321.31C625.967,1321.31 627.471,1321.8 628.623,1322.78C629.775,1323.75 630.407,1325.08 630.519,1326.76L626.151,1326.76C626.071,1326.27 625.855,1325.89 625.503,1325.63C625.151,1325.38 624.671,1325.25 624.063,1325.25C623.455,1325.25 622.983,1325.36 622.647,1325.59C622.311,1325.81 622.143,1326.12 622.143,1326.52C622.143,1326.92 622.347,1327.23 622.755,1327.45C623.163,1327.66 623.895,1327.86 624.951,1328.03C626.823,1328.31 628.271,1328.85 629.295,1329.68C630.319,1330.5 630.831,1331.68 630.831,1333.22C630.831,1334.35 630.551,1335.33 629.991,1336.15C629.431,1336.96 628.651,1337.58 627.651,1337.99C626.651,1338.41 625.519,1338.62 624.255,1338.62Z" style="fill:url(#_Linear1);fill-rule:nonzero;"/>
                        </g>
                        <path id="O" d="M643.887,1338.69C642.175,1338.69 640.647,1338.32 639.303,1337.57C637.959,1336.83 636.907,1335.79 636.147,1334.47C635.387,1333.14 635.007,1331.64 635.007,1329.98C635.007,1328.31 635.387,1326.82 636.147,1325.49C636.907,1324.16 637.959,1323.13 639.303,1322.38C640.647,1321.64 642.175,1321.27 643.887,1321.27C645.583,1321.27 647.103,1321.64 648.447,1322.38C649.791,1323.13 650.843,1324.16 651.603,1325.49C652.363,1326.82 652.743,1328.31 652.743,1329.98C652.743,1331.64 652.363,1333.14 651.603,1334.47C650.843,1335.79 649.791,1336.83 648.447,1337.57C647.103,1338.32 645.583,1338.69 643.887,1338.69ZM639.639,1329.98C639.639,1330.83 639.823,1331.58 640.191,1332.25C640.559,1332.91 641.067,1333.43 641.715,1333.81C642.363,1334.18 643.087,1334.37 643.887,1334.37C644.687,1334.37 645.411,1334.18 646.059,1333.81C646.707,1333.43 647.211,1332.91 647.571,1332.25C647.931,1331.58 648.111,1330.83 648.111,1329.98C648.111,1329.13 647.931,1328.37 647.571,1327.71C647.211,1327.05 646.707,1326.53 646.059,1326.15C645.411,1325.77 644.687,1325.59 643.887,1325.59C643.087,1325.59 642.363,1325.77 641.715,1326.15C641.067,1326.53 640.559,1327.05 640.191,1327.71C639.823,1328.37 639.639,1329.13 639.639,1329.98Z" style="fill:url(#_Linear2);fill-rule:nonzero;"/>
                        <g id="L" transform="matrix(1,0,0,1,0,0.312)">
                            <path d="M657.951,1321.58L662.463,1321.58L662.463,1334.18L669.351,1334.18L669.351,1338.38L657.951,1338.38L657.951,1321.58Z" style="fill:url(#_Linear3);fill-rule:nonzero;"/>
                        </g>
                        <g id="U" transform="matrix(1,0,0,1,0,0.048)">
                            <path d="M680.751,1338.64C679.359,1338.64 678.139,1338.39 677.091,1337.87C676.043,1337.36 675.231,1336.63 674.655,1335.68C674.079,1334.73 673.791,1333.6 673.791,1332.31L673.791,1321.58L678.327,1321.58L678.327,1331.56C678.327,1332.47 678.539,1333.16 678.963,1333.63C679.387,1334.09 679.983,1334.32 680.751,1334.32C681.503,1334.32 682.087,1334.09 682.503,1333.63C682.919,1333.16 683.127,1332.47 683.127,1331.56L683.127,1321.58L687.663,1321.58L687.663,1332.31C687.663,1333.59 687.375,1334.7 686.799,1335.65C686.223,1336.61 685.415,1337.34 684.375,1337.86C683.335,1338.38 682.127,1338.64 680.751,1338.64Z" style="fill:url(#_Linear4);fill-rule:nonzero;"/>
                        </g>
                        <g id="T" transform="matrix(1,0,0,1,0,0.312)">
                            <path d="M696.639,1325.71L692.415,1325.71L692.415,1321.58L705.375,1321.58L705.375,1325.71L701.175,1325.71L701.175,1338.38L696.639,1338.38L696.639,1325.71Z" style="fill:url(#_Linear5);fill-rule:nonzero;"/>
                        </g>
                        <g id="I" transform="matrix(1,0,0,1,0,0.312)">
                            <path d="M709.623,1334.42L712.071,1334.42L712.071,1325.47L709.671,1325.47L709.671,1321.58L719.007,1321.58L719.007,1325.47L716.607,1325.47L716.607,1334.42L719.055,1334.42L719.055,1338.38L709.623,1338.38L709.623,1334.42Z" style="fill:url(#_Linear6);fill-rule:nonzero;"/>
                        </g>
                        <path id="O1" serif:id="O" d="M732.447,1338.69C730.735,1338.69 729.207,1338.32 727.863,1337.57C726.519,1336.83 725.467,1335.79 724.707,1334.47C723.947,1333.14 723.567,1331.64 723.567,1329.98C723.567,1328.31 723.947,1326.82 724.707,1325.49C725.467,1324.16 726.519,1323.13 727.863,1322.38C729.207,1321.64 730.735,1321.27 732.447,1321.27C734.143,1321.27 735.663,1321.64 737.007,1322.38C738.351,1323.13 739.403,1324.16 740.163,1325.49C740.923,1326.82 741.303,1328.31 741.303,1329.98C741.303,1331.64 740.923,1333.14 740.163,1334.47C739.403,1335.79 738.351,1336.83 737.007,1337.57C735.663,1338.32 734.143,1338.69 732.447,1338.69ZM728.199,1329.98C728.199,1330.83 728.383,1331.58 728.751,1332.25C729.119,1332.91 729.627,1333.43 730.275,1333.81C730.923,1334.18 731.647,1334.37 732.447,1334.37C733.247,1334.37 733.971,1334.18 734.619,1333.81C735.267,1333.43 735.771,1332.91 736.131,1332.25C736.491,1331.58 736.671,1330.83 736.671,1329.98C736.671,1329.13 736.491,1328.37 736.131,1327.71C735.771,1327.05 735.267,1326.53 734.619,1326.15C733.971,1325.77 733.247,1325.59 732.447,1325.59C731.647,1325.59 730.923,1325.77 730.275,1326.15C729.627,1326.53 729.119,1327.05 728.751,1327.71C728.383,1328.37 728.199,1329.13 728.199,1329.98Z" style="fill:url(#_Linear7);fill-rule:nonzero;"/>
                        <g id="N" transform="matrix(1,0,0,1,0,0.312)">
                            <path d="M746.511,1321.58L749.919,1321.58L756.087,1330.03L756.015,1326.23L756.015,1321.58L760.479,1321.58L760.479,1338.38L757.023,1338.38L750.903,1329.98L750.975,1334.3L750.975,1338.38L746.511,1338.38L746.511,1321.58Z" style="fill:url(#_Linear8);fill-rule:nonzero;"/>
                        </g>
                        <g id="S1" serif:id="S" transform="matrix(1,0,0,1,0,0.072)">
                            <path d="M772.359,1338.62C770.327,1338.62 768.715,1338.13 767.523,1337.14C766.331,1336.16 765.695,1334.75 765.615,1332.93L770.055,1332.93C770.151,1334.07 770.919,1334.63 772.359,1334.63C772.999,1334.63 773.503,1334.52 773.871,1334.29C774.239,1334.05 774.423,1333.75 774.423,1333.36C774.423,1332.93 774.203,1332.59 773.763,1332.33C773.323,1332.07 772.583,1331.87 771.543,1331.71C769.703,1331.42 768.287,1330.88 767.295,1330.1C766.303,1329.31 765.807,1328.16 765.807,1326.64C765.807,1325.54 766.079,1324.59 766.623,1323.79C767.167,1322.99 767.923,1322.37 768.891,1321.95C769.859,1321.53 770.967,1321.31 772.215,1321.31C774.071,1321.31 775.575,1321.8 776.727,1322.78C777.879,1323.75 778.511,1325.08 778.623,1326.76L774.255,1326.76C774.175,1326.27 773.959,1325.89 773.607,1325.63C773.255,1325.38 772.775,1325.25 772.167,1325.25C771.559,1325.25 771.087,1325.36 770.751,1325.59C770.415,1325.81 770.247,1326.12 770.247,1326.52C770.247,1326.92 770.451,1327.23 770.859,1327.45C771.267,1327.66 771.999,1327.86 773.055,1328.03C774.927,1328.31 776.375,1328.85 777.399,1329.68C778.423,1330.5 778.935,1331.68 778.935,1333.22C778.935,1334.35 778.655,1335.33 778.095,1336.15C777.535,1336.96 776.755,1337.58 775.755,1337.99C774.755,1338.41 773.623,1338.62 772.359,1338.62Z" style="fill:url(#_Linear9);fill-rule:nonzero;"/>
                        </g>
                        <g id="L1" serif:id="L" transform="matrix(1,0,0,1,0,0.312)">
                            <path d="M802.287,1321.58L806.799,1321.58L806.799,1334.18L813.687,1334.18L813.687,1338.38L802.287,1338.38L802.287,1321.58Z" style="fill:url(#_Linear10);fill-rule:nonzero;"/>
                        </g>
                        <g id="T1" serif:id="T" transform="matrix(1,0,0,1,0,0.312)">
                            <path d="M820.023,1325.71L815.799,1325.71L815.799,1321.58L828.759,1321.58L828.759,1325.71L824.559,1325.71L824.559,1338.38L820.023,1338.38L820.023,1325.71Z" style="fill:url(#_Linear11);fill-rule:nonzero;"/>
                        </g>
                        <g id="D" transform="matrix(1,0,0,1,0,0.312)">
                            <path d="M833.703,1321.58L840.399,1321.58C842.111,1321.58 843.627,1321.93 844.947,1322.63C846.267,1323.34 847.299,1324.33 848.043,1325.6C848.787,1326.87 849.159,1328.33 849.159,1329.98C849.159,1331.63 848.787,1333.09 848.043,1334.36C847.299,1335.63 846.267,1336.62 844.947,1337.32C843.627,1338.03 842.111,1338.38 840.399,1338.38L833.703,1338.38L833.703,1321.58ZM840.183,1334.18C841.511,1334.18 842.567,1333.8 843.351,1333.04C844.135,1332.28 844.527,1331.26 844.527,1329.98C844.527,1328.7 844.135,1327.68 843.351,1326.92C842.567,1326.16 841.511,1325.78 840.183,1325.78L838.215,1325.78L838.215,1334.18L840.183,1334.18Z" style="fill:url(#_Linear12);fill-rule:nonzero;"/>
                        </g>
                        <g id="DOT" transform="matrix(1,0,0,1,0,0.096)">
                            <path d="M854.919,1338.59C854.231,1338.59 853.671,1338.39 853.239,1337.98C852.807,1337.57 852.591,1337.04 852.591,1336.39C852.591,1335.71 852.803,1335.17 853.227,1334.77C853.651,1334.36 854.215,1334.15 854.919,1334.15C855.607,1334.15 856.163,1334.36 856.587,1334.77C857.011,1335.17 857.223,1335.71 857.223,1336.39C857.223,1337.04 857.011,1337.57 856.587,1337.98C856.163,1338.39 855.607,1338.59 854.919,1338.59Z" style="fill:url(#_Linear13);fill-rule:nonzero;"/>
                        </g>
                    </g>
                </g>
                <g transform="matrix(-358.197,358.197,358.197,358.197,3003.92,689.643)">
                    <g id="Logo-Icon" serif:id="Logo Icon">
                        <path d="M1.036,-0.723C1.036,-0.723 1.036,-0.723 1.036,-0.723C1.05,-0.724 1.064,-0.73 1.075,-0.741C1.099,-0.765 1.099,-0.804 1.075,-0.828C1.051,-0.852 1.012,-0.852 0.988,-0.828C0.964,-0.804 0.964,-0.765 0.988,-0.741C0.992,-0.737 0.996,-0.734 1.001,-0.731C0.989,-0.682 0.97,-0.647 0.947,-0.621C0.939,-0.612 0.93,-0.603 0.921,-0.596C0.905,-0.582 0.887,-0.571 0.868,-0.562C0.868,-0.562 0.868,-0.562 0.868,-0.562C0.847,-0.586 0.85,-0.626 0.855,-0.653C0.856,-0.657 0.856,-0.661 0.857,-0.664C0.857,-0.665 0.857,-0.665 0.857,-0.665C0.87,-0.662 0.883,-0.664 0.895,-0.67C0.901,-0.673 0.907,-0.677 0.912,-0.682C0.936,-0.706 0.936,-0.745 0.912,-0.769C0.888,-0.793 0.849,-0.793 0.825,-0.769C0.813,-0.758 0.807,-0.743 0.807,-0.728C0.806,-0.712 0.812,-0.695 0.824,-0.683C0.824,-0.683 0.824,-0.683 0.824,-0.682C0.823,-0.68 0.823,-0.678 0.822,-0.676C0.815,-0.645 0.806,-0.588 0.833,-0.547C0.815,-0.54 0.796,-0.533 0.777,-0.527C0.748,-0.517 0.718,-0.507 0.69,-0.494C0.69,-0.494 0.69,-0.494 0.69,-0.494C0.69,-0.494 0.69,-0.494 0.69,-0.494C0.706,-0.539 0.715,-0.599 0.689,-0.665C0.677,-0.694 0.663,-0.721 0.65,-0.746C0.65,-0.747 0.65,-0.747 0.649,-0.748C0.643,-0.762 0.636,-0.774 0.63,-0.787C0.605,-0.84 0.591,-0.885 0.611,-0.94C0.611,-0.94 0.611,-0.94 0.611,-0.94C0.629,-0.938 0.647,-0.944 0.66,-0.958C0.684,-0.982 0.684,-1.021 0.66,-1.045C0.636,-1.069 0.597,-1.069 0.573,-1.045C0.549,-1.021 0.549,-0.982 0.573,-0.958C0.574,-0.956 0.576,-0.955 0.577,-0.953C0.577,-0.953 0.577,-0.953 0.577,-0.953C0.577,-0.953 0.577,-0.953 0.577,-0.953C0.557,-0.899 0.564,-0.852 0.582,-0.806C0.508,-0.839 0.47,-0.911 0.458,-0.938C0.458,-0.938 0.458,-0.938 0.458,-0.938C0.46,-0.94 0.462,-0.942 0.465,-0.944C0.489,-0.968 0.489,-1.007 0.465,-1.031C0.44,-1.055 0.401,-1.055 0.377,-1.031C0.353,-1.007 0.353,-0.968 0.377,-0.944C0.39,-0.931 0.407,-0.925 0.423,-0.926C0.423,-0.926 0.423,-0.926 0.424,-0.926C0.433,-0.903 0.462,-0.846 0.516,-0.804C0.513,-0.804 0.51,-0.804 0.506,-0.803C0.37,-0.797 0.234,-0.742 0.13,-0.638C-0.09,-0.418 -0.09,-0.059 0.13,0.162C0.351,0.382 0.709,0.382 0.929,0.162C0.955,0.136 0.978,0.109 0.997,0.08C0.997,0.08 0.998,0.08 0.998,0.08L0.998,0.079C1.136,-0.125 1.127,-0.399 0.971,-0.592C0.971,-0.593 0.972,-0.593 0.972,-0.594C1,-0.624 1.022,-0.665 1.036,-0.723ZM0.65,-0.419L0.65,-0.419C0.665,-0.437 0.683,-0.45 0.702,-0.459C0.73,-0.472 0.76,-0.482 0.789,-0.492C0.843,-0.51 0.898,-0.529 0.944,-0.567C1.086,-0.387 1.096,-0.137 0.971,0.052C0.93,0.069 0.88,0.048 0.819,-0.009C0.773,-0.053 0.689,-0.157 0.65,-0.207L0.697,-0.233L0.697,-0.233C0.721,-0.209 0.76,-0.209 0.784,-0.233C0.808,-0.257 0.808,-0.297 0.784,-0.321C0.76,-0.345 0.721,-0.345 0.697,-0.321C0.682,-0.306 0.677,-0.285 0.68,-0.266C0.68,-0.266 0.68,-0.266 0.68,-0.266L0.547,-0.192C0.547,-0.192 0.547,-0.193 0.547,-0.193C0.56,-0.248 0.591,-0.354 0.648,-0.418L0.648,-0.418C0.649,-0.418 0.649,-0.418 0.65,-0.419ZM0.602,-0.76C0.603,-0.758 0.605,-0.755 0.606,-0.753L0.617,-0.731C0.63,-0.706 0.643,-0.68 0.655,-0.651C0.698,-0.544 0.626,-0.448 0.62,-0.441L0.62,-0.441L0.62,-0.441C0.586,-0.403 0.561,-0.353 0.543,-0.307C0.543,-0.307 0.543,-0.307 0.543,-0.307C0.528,-0.326 0.508,-0.357 0.498,-0.395C0.486,-0.442 0.495,-0.491 0.501,-0.513C0.517,-0.513 0.535,-0.519 0.548,-0.532C0.572,-0.556 0.572,-0.595 0.548,-0.619C0.523,-0.644 0.484,-0.644 0.46,-0.619C0.436,-0.595 0.436,-0.556 0.46,-0.532C0.462,-0.53 0.464,-0.529 0.466,-0.527C0.46,-0.503 0.448,-0.444 0.463,-0.385C0.478,-0.326 0.515,-0.282 0.529,-0.266C0.529,-0.266 0.529,-0.266 0.529,-0.266C0.515,-0.221 0.507,-0.184 0.504,-0.169L0.492,-0.162L0.488,-0.158C0.487,-0.158 0.434,-0.131 0.369,-0.129C0.307,-0.18 0.326,-0.26 0.335,-0.289C0.353,-0.287 0.371,-0.293 0.384,-0.307C0.408,-0.331 0.408,-0.37 0.384,-0.394C0.36,-0.418 0.321,-0.418 0.297,-0.394C0.272,-0.37 0.272,-0.331 0.297,-0.307L0.301,-0.302C0.301,-0.302 0.301,-0.302 0.301,-0.302C0.287,-0.26 0.279,-0.189 0.316,-0.134C0.301,-0.137 0.287,-0.141 0.272,-0.148C0.16,-0.199 0.161,-0.343 0.163,-0.373C0.163,-0.373 0.163,-0.373 0.163,-0.373C0.172,-0.376 0.181,-0.381 0.189,-0.388C0.213,-0.412 0.213,-0.452 0.189,-0.476C0.165,-0.5 0.126,-0.5 0.102,-0.476C0.078,-0.452 0.078,-0.412 0.102,-0.388C0.109,-0.381 0.117,-0.376 0.126,-0.373C0.126,-0.373 0.126,-0.373 0.126,-0.373C0.124,-0.334 0.125,-0.176 0.256,-0.115C0.335,-0.078 0.418,-0.094 0.465,-0.11L0.412,-0.007L0.319,0.062L0.334,0.077C0.337,0.08 0.412,0.152 0.468,0.114C0.502,0.092 0.582,0.044 0.617,0.022C0.654,0.1 0.702,0.204 0.705,0.212C0.707,0.217 0.715,0.232 0.729,0.251C0.724,0.253 0.719,0.255 0.714,0.257C0.527,0.326 0.307,0.286 0.157,0.135C-0.049,-0.071 -0.049,-0.406 0.157,-0.612C0.27,-0.725 0.423,-0.776 0.571,-0.765C0.578,-0.765 0.585,-0.764 0.592,-0.763C0.593,-0.763 0.593,-0.763 0.594,-0.763C0.597,-0.762 0.599,-0.761 0.602,-0.76ZM0.94,0.094C0.938,0.097 0.936,0.099 0.935,0.101C0.925,0.113 0.915,0.124 0.904,0.135C0.862,0.178 0.813,0.211 0.763,0.236C0.748,0.216 0.74,0.201 0.739,0.199C0.735,0.188 0.657,0.022 0.641,-0.012L0.633,-0.03L0.616,-0.019C0.611,-0.016 0.492,0.055 0.448,0.084C0.428,0.097 0.397,0.08 0.376,0.065L0.44,0.018L0.519,-0.135L0.618,-0.189C0.655,-0.141 0.744,-0.031 0.794,0.017C0.848,0.068 0.896,0.094 0.94,0.094ZM0.886,-0.743C0.896,-0.733 0.896,-0.717 0.886,-0.707C0.876,-0.698 0.86,-0.698 0.85,-0.707C0.841,-0.717 0.841,-0.733 0.85,-0.743C0.86,-0.753 0.876,-0.753 0.886,-0.743ZM1.05,-0.803C1.059,-0.793 1.059,-0.777 1.05,-0.767C1.04,-0.757 1.024,-0.757 1.014,-0.767C1.004,-0.777 1.004,-0.793 1.014,-0.803C1.024,-0.812 1.04,-0.812 1.05,-0.803ZM0.634,-1.019C0.644,-1.009 0.644,-0.993 0.634,-0.983C0.624,-0.974 0.608,-0.974 0.598,-0.983C0.589,-0.993 0.589,-1.009 0.598,-1.019C0.608,-1.029 0.624,-1.029 0.634,-1.019ZM0.439,-1.005C0.449,-0.996 0.449,-0.98 0.439,-0.97C0.429,-0.96 0.413,-0.96 0.403,-0.97C0.393,-0.98 0.393,-0.996 0.403,-1.005C0.413,-1.015 0.429,-1.015 0.439,-1.005ZM0.358,-0.368C0.368,-0.358 0.368,-0.342 0.358,-0.332C0.348,-0.323 0.332,-0.323 0.322,-0.332C0.312,-0.342 0.313,-0.358 0.322,-0.368C0.332,-0.378 0.348,-0.378 0.358,-0.368ZM0.163,-0.45C0.173,-0.44 0.173,-0.424 0.163,-0.414C0.153,-0.404 0.137,-0.404 0.128,-0.414C0.118,-0.424 0.118,-0.44 0.128,-0.45C0.137,-0.46 0.153,-0.46 0.163,-0.45ZM0.522,-0.594C0.532,-0.584 0.532,-0.568 0.522,-0.558C0.512,-0.548 0.496,-0.548 0.486,-0.558C0.476,-0.568 0.476,-0.584 0.486,-0.594C0.496,-0.603 0.512,-0.603 0.522,-0.594ZM0.759,-0.295C0.768,-0.285 0.768,-0.269 0.759,-0.259C0.749,-0.249 0.733,-0.249 0.723,-0.259C0.713,-0.269 0.713,-0.285 0.723,-0.295C0.733,-0.305 0.749,-0.305 0.759,-0.295Z" style="fill:url(#_Linear14);"/>
                    </g>
                </g>
            </g>
        </g>
    </g>
    <defs>
        <linearGradient id="_Linear1" x1="0" y1="0" x2="1" y2="0" gradientUnits="userSpaceOnUse" gradientTransform="matrix(51.3939,-91.9928,6.6867,3.73568,737.367,1360.63)"><stop offset="0" style="stop-color:rgb(138,105,212);stop-opacity:1"/><stop offset="1" style="stop-color:rgb(244,105,219);stop-opacity:1"/></linearGradient>
        <linearGradient id="_Linear2" x1="0" y1="0" x2="1" y2="0" gradientUnits="userSpaceOnUse" gradientTransform="matrix(51.3939,-91.9928,6.6867,3.73568,737.367,1360.63)"><stop offset="0" style="stop-color:rgb(138,105,212);stop-opacity:1"/><stop offset="1" style="stop-color:rgb(244,105,219);stop-opacity:1"/></linearGradient>
        <linearGradient id="_Linear3" x1="0" y1="0" x2="1" y2="0" gradientUnits="userSpaceOnUse" gradientTransform="matrix(51.3939,-91.9928,6.6867,3.73568,737.367,1360.63)"><stop offset="0" style="stop-color:rgb(138,105,212);stop-opacity:1"/><stop offset="1" style="stop-color:rgb(244,105,219);stop-opacity:1"/></linearGradient>
        <linearGradient id="_Linear4" x1="0" y1="0" x2="1" y2="0" gradientUnits="userSpaceOnUse" gradientTransform="matrix(51.3939,-91.9928,6.6867,3.73568,737.367,1360.63)"><stop offset="0" style="stop-color:rgb(138,105,212);stop-opacity:1"/><stop offset="1" style="stop-color:rgb(244,105,219);stop-opacity:1"/></linearGradient>
        <linearGradient id="_Linear5" x1="0" y1="0" x2="1" y2="0" gradientUnits="userSpaceOnUse" gradientTransform="matrix(51.3939,-91.9928,6.6867,3.73568,737.367,1360.63)"><stop offset="0" style="stop-color:rgb(138,105,212);stop-opacity:1"/><stop offset="1" style="stop-color:rgb(244,105,219);stop-opacity:1"/></linearGradient>
        <linearGradient id="_Linear6" x1="0" y1="0" x2="1" y2="0" gradientUnits="userSpaceOnUse" gradientTransform="matrix(51.3939,-91.9928,6.6867,3.73568,737.367,1360.63)"><stop offset="0" style="stop-color:rgb(138,105,212);stop-opacity:1"/><stop offset="1" style="stop-color:rgb(244,105,219);stop-opacity:1"/></linearGradient>
        <linearGradient id="_Linear7" x1="0" y1="0" x2="1" y2="0" gradientUnits="userSpaceOnUse" gradientTransform="matrix(51.3939,-91.9928,6.6867,3.73568,737.367,1360.63)"><stop offset="0" style="stop-color:rgb(138,105,212);stop-opacity:1"/><stop offset="1" style="stop-color:rgb(244,105,219);stop-opacity:1"/></linearGradient>
        <linearGradient id="_Linear8" x1="0" y1="0" x2="1" y2="0" gradientUnits="userSpaceOnUse" gradientTransform="matrix(51.3939,-91.9928,6.6867,3.73568,737.367,1360.63)"><stop offset="0" style="stop-color:rgb(138,105,212);stop-opacity:1"/><stop offset="1" style="stop-color:rgb(244,105,219);stop-opacity:1"/></linearGradient>
        <linearGradient id="_Linear9" x1="0" y1="0" x2="1" y2="0" gradientUnits="userSpaceOnUse" gradientTransform="matrix(51.3939,-91.9928,6.6867,3.73568,737.367,1360.63)"><stop offset="0" style="stop-color:rgb(138,105,212);stop-opacity:1"/><stop offset="1" style="stop-color:rgb(244,105,219);stop-opacity:1"/></linearGradient>
        <linearGradient id="_Linear10" x1="0" y1="0" x2="1" y2="0" gradientUnits="userSpaceOnUse" gradientTransform="matrix(51.3939,-91.9928,6.6867,3.73568,737.367,1360.63)"><stop offset="0" style="stop-color:rgb(138,105,212);stop-opacity:1"/><stop offset="1" style="stop-color:rgb(244,105,219);stop-opacity:1"/></linearGradient>
        <linearGradient id="_Linear11" x1="0" y1="0" x2="1" y2="0" gradientUnits="userSpaceOnUse" gradientTransform="matrix(51.3939,-91.9928,6.6867,3.73568,737.367,1360.63)"><stop offset="0" style="stop-color:rgb(138,105,212);stop-opacity:1"/><stop offset="1" style="stop-color:rgb(244,105,219);stop-opacity:1"/></linearGradient>
        <linearGradient id="_Linear12" x1="0" y1="0" x2="1" y2="0" gradientUnits="userSpaceOnUse" gradientTransform="matrix(51.3939,-91.9928,6.6867,3.73568,737.367,1360.63)"><stop offset="0" style="stop-color:rgb(138,105,212);stop-opacity:1"/><stop offset="1" style="stop-color:rgb(244,105,219);stop-opacity:1"/></linearGradient>
        <linearGradient id="_Linear13" x1="0" y1="0" x2="1" y2="0" gradientUnits="userSpaceOnUse" gradientTransform="matrix(51.3939,-91.9928,6.6867,3.73568,737.367,1360.63)"><stop offset="0" style="stop-color:rgb(138,105,212);stop-opacity:1"/><stop offset="1" style="stop-color:rgb(244,105,219);stop-opacity:1"/></linearGradient>
        <linearGradient id="_Linear14" x1="0" y1="0" x2="1" y2="0" gradientUnits="userSpaceOnUse" gradientTransform="matrix(1,0,0,1,0,1.51803e-06)"><stop offset="0" style="stop-color:rgb(235,107,255);stop-opacity:1"/><stop offset="1" style="stop-color:rgb(136,2,255);stop-opacity:1"/></linearGradient>
    </defs>
</svg>
